<?xml version="1.0" standalone="no"?>
<!DOCTYPE svg PUBLIC "-//W3C//DTD SVG 20010904//EN"
 "http://www.w3.org/TR/2001/REC-SVG-20010904/DTD/svg10.dtd">
<svg version="1.0" xmlns="http://www.w3.org/2000/svg"
 width="3000.000000pt" height="3000.000000pt" viewBox="0 0 3000.000000 3000.000000"
 preserveAspectRatio="xMidYMid meet">
<metadata>
Created by potrace 1.14, written by Peter Selinger 2001-2017
</metadata>
<g transform="translate(0.000000,3000.000000) scale(0.100000,-0.100000)"
fill="#000000" stroke="none">
<path d="M14850 24054 c-162 -18 -231 -29 -335 -54 -471 -112 -878 -364 -1254
-778 -42 -46 -79 -78 -85 -75 -6 4 -4 -1 4 -11 13 -17 14 -17 20 0 6 15 7 16
13 2 3 -10 -1 -19 -11 -23 -9 -3 -18 -1 -20 4 -2 6 -9 11 -15 11 -15 0 -117
-71 -117 -82 0 -5 -4 -7 -9 -4 -5 3 -13 0 -19 -7 -8 -10 -5 -12 15 -11 14 0
32 8 38 18 7 10 17 18 22 19 4 1 7 6 5 10 -1 5 2 6 8 2 6 -4 17 -1 25 5 12 10
16 9 21 -3 4 -12 20 -1 66 44 56 54 67 60 132 73 195 40 562 45 836 11 470
-58 857 -174 1310 -391 844 -404 1981 -564 2918 -412 73 11 130 23 127 26 -2
3 -35 19 -73 36 -130 59 -249 133 -622 381 -681 455 -941 610 -1335 797 -419
198 -870 347 -1196 393 -110 16 -398 27 -469 19z m354 -269 c-14 -19 -30 -33
-34 -30 -4 3 -10 -5 -14 -18 -3 -12 -21 -39 -41 -60 -20 -21 -33 -43 -29 -49
5 -8 2 -9 -9 -5 -10 3 -17 2 -17 -3 0 -6 5 -10 10 -10 19 0 10 -20 -14 -31
-20 -10 -31 -8 -59 9 -26 17 -36 19 -45 10 -7 -7 -12 -8 -12 -2 0 5 -39 9 -87
10 -151 1 -244 8 -220 17 12 5 43 5 68 2 30 -4 49 -3 54 4 3 6 37 11 78 11 47
0 67 -3 58 -9 -10 -6 7 -8 48 -7 48 2 61 0 57 -10 -3 -7 -1 -16 4 -19 6 -4 10
-1 10 5 0 6 5 8 10 5 6 -4 8 -10 5 -15 -3 -4 4 -6 15 -3 11 3 20 10 20 15 0 6
-7 8 -15 4 -26 -10 -16 6 32 50 26 23 44 46 40 50 -4 4 -28 -13 -54 -39 -25
-26 -49 -44 -52 -41 -7 7 110 113 125 114 7 0 15 7 18 16 3 8 10 13 14 10 5
-3 19 8 31 24 12 17 24 30 27 30 3 0 -7 -16 -22 -35z m-853 -32 c-11 -21 -45
-63 -36 -45 3 6 2 12 -3 12 -15 0 -23 -30 -9 -30 7 -1 5 -6 -5 -14 -10 -7 -14
-17 -10 -21 4 -5 2 -5 -5 -1 -6 3 -10 16 -8 28 5 25 35 59 46 53 4 -3 10 4 14
15 3 11 11 20 16 20 6 0 6 -6 0 -17z m-82 -123 c1 -12 -1 -12 -8 -2 -4 8 -12
13 -17 12 -5 -1 -10 4 -13 11 -2 7 1 9 8 5 6 -4 11 0 12 11 0 16 1 16 9 -2 5
-11 9 -27 9 -35z m-39 -25 c0 -5 -4 -4 -9 3 -6 10 -10 10 -21 -3 -11 -13 -9
-15 11 -16 13 -1 31 -1 39 0 10 0 11 -1 3 -5 -23 -10 -14 -21 15 -17 25 3 26
3 5 -6 -30 -13 -29 -18 10 -55 17 -18 48 -50 67 -71 l35 -38 -43 24 c-47 26
-72 49 -53 49 7 0 9 5 6 10 -5 8 -11 8 -20 0 -19 -16 -65 24 -47 41 19 21 14
39 -15 51 -16 7 -30 13 -31 14 -2 2 4 14 15 27 17 23 33 20 33 -8z m350 16
c-24 -7 -24 -7 8 -14 19 -4 44 -5 55 -2 12 3 36 1 52 -4 24 -8 12 -10 -56 -9
-87 1 -90 2 -80 36 1 1 11 2 24 1 21 -1 21 -1 -3 -8z m-57 -15 c25 -19 21 -26
-15 -25 -30 1 -31 2 -8 8 45 12 3 23 -58 15 l-57 -8 40 -7 c38 -6 38 -6 -15
-7 -39 -1 -51 1 -40 8 13 9 13 10 0 11 -16 2 68 15 110 17 14 1 33 -5 43 -12z
m660 3 c24 -1 26 -3 10 -6 -13 -2 -23 -9 -23 -14 0 -19 -38 -8 -43 12 -4 15
-2 19 10 15 8 -3 29 -7 46 -7z m-69 -15 c3 -8 2 -12 -4 -9 -6 3 -10 10 -10 16
0 14 7 11 14 -7z m216 -5 c0 -6 7 -8 16 -5 10 4 13 2 8 -6 -5 -8 5 -9 34 -5
26 3 40 1 36 -4 -8 -13 -190 -3 -212 11 -13 9 -7 10 25 6 24 -4 44 -2 48 4 8
14 45 13 45 -1z m-1010 -9 c20 -6 21 -8 5 -8 -11 0 -29 3 -40 8 -25 11 1 11
35 0z m1077 4 c-3 -3 -12 -4 -19 -1 -8 3 -5 6 6 6 11 1 17 -2 13 -5z m628 -4
c3 -6 -1 -7 -9 -4 -18 7 -21 14 -7 14 6 0 13 -4 16 -10z m-937 -14 c-2 -7 8
-23 22 -36 14 -12 19 -18 11 -14 -9 4 -12 2 -9 -7 3 -8 10 -13 16 -12 9 2 102
-117 102 -130 0 -2 -7 -4 -17 -4 -15 0 -90 74 -86 86 1 3 5 15 9 26 8 19 7 19
-10 3 -23 -24 -29 -23 -21 5 5 16 4 18 -4 8 -8 -13 -13 -11 -30 10 -23 27 -26
39 -10 39 5 0 7 -4 4 -10 -3 -6 1 -7 10 -3 23 8 -3 25 -27 17 -10 -3 -18 -1
-18 5 0 6 5 12 10 12 6 1 14 2 19 3 5 0 13 4 17 9 11 11 15 9 12 -7z m392 -7
c-23 -6 -23 -7 -3 -8 12 -1 25 -6 28 -11 5 -8 11 -8 19 -1 9 8 13 7 13 -4 0
-18 -18 -20 -34 -4 -6 6 -27 11 -47 12 -26 1 -32 3 -21 10 8 4 13 12 11 16 -3
4 9 5 27 2 31 -4 31 -5 7 -12z m-1274 1 c25 -10 26 -12 11 -27 -13 -13 -19
-14 -31 -4 -9 7 -23 11 -31 7 -8 -3 -15 -1 -15 4 0 5 8 11 18 13 9 2 2 3 -16
1 -18 -1 -30 1 -27 7 8 12 57 12 91 -1z m1798 -2 c-3 -4 -12 -4 -21 -1 -10 4
-14 2 -9 -5 3 -6 1 -14 -5 -18 -8 -4 -9 -3 -5 4 4 7 1 12 -9 12 -10 0 -15 -5
-12 -14 7 -18 -46 -56 -88 -63 -19 -3 -40 -13 -47 -21 -11 -13 -10 -15 3 -10
9 3 22 2 30 -4 11 -8 10 -9 -5 -4 -13 5 -17 2 -13 -8 10 -25 -20 -26 -31 -1
-8 18 -8 25 4 29 19 7 18 23 -1 23 -8 0 -15 -5 -15 -10 0 -15 -53 3 -73 24
-14 15 -22 17 -32 9 -9 -8 -24 -8 -47 -1 -18 5 -25 10 -16 10 9 1 18 6 20 12
5 16 88 -10 88 -28 0 -7 4 -13 9 -13 5 0 18 -3 28 -6 10 -3 7 2 -7 10 -16 10
-20 15 -9 16 8 0 19 -4 25 -9 8 -9 36 -2 98 24 14 6 17 5 12 -3 -4 -7 -14 -12
-22 -12 -8 0 -14 -5 -14 -10 0 -12 73 16 78 31 2 5 9 6 14 3 7 -5 8 -2 3 5 -5
9 -10 10 -18 2 -6 -6 -15 -11 -20 -11 -16 0 18 27 48 37 34 12 66 13 59 1z
m-1899 -17 c3 -5 1 -12 -5 -16 -5 -3 -10 -1 -10 6 0 8 -6 7 -17 -4 -16 -13
-19 -14 -32 0 -12 13 -11 14 7 9 11 -4 23 -2 27 4 8 13 22 13 30 1z m1500 -1
c15 -6 11 -7 -17 -7 -20 1 -35 5 -32 9 6 10 22 9 49 -2z m-1596 -23 c18 1 20
-1 10 -8 -8 -5 -23 -6 -34 -2 -11 4 -31 6 -45 5 -23 -1 -23 0 -5 8 11 5 27 6
35 3 8 -4 26 -6 39 -6z m-128 -18 c-46 -14 -35 -20 14 -9 22 5 51 9 65 9 14
-1 -2 -7 -35 -15 -33 -7 -66 -11 -72 -9 -7 2 -20 2 -29 -2 -13 -5 -13 -7 -2
-14 9 -6 7 -9 -9 -9 -12 0 -29 -3 -39 -7 -12 -4 -15 -3 -10 5 4 8 0 12 -11 13
-10 0 -2 6 17 13 19 8 38 11 42 9 5 -2 18 3 30 11 12 9 34 16 48 15 22 -1 21
-2 -9 -10z m2009 -49 c5 0 8 -9 7 -20 -1 -11 -5 -20 -10 -20 -5 0 -7 7 -4 14
4 11 1 13 -10 9 -10 -4 -14 -2 -10 4 4 6 4 13 0 16 -5 2 -2 2 5 0 8 -1 17 -3
22 -3z m-2140 -9 c0 -5 -13 -14 -30 -20 -35 -12 -40 -5 -7 10 19 8 17 9 -11 4
-20 -3 -31 -1 -27 5 8 12 75 13 75 1z m2180 -16 c-15 -18 -7 -19 22 -4 15 8
19 8 14 0 -4 -6 -5 -11 -2 -11 2 0 12 -3 22 -7 11 -4 15 -3 11 4 -5 7 1 9 15
5 l22 -5 -24 -9 c-12 -5 -21 -11 -18 -13 3 -3 17 -1 32 4 18 7 34 7 50 -1 30
-13 40 -34 20 -42 -9 -3 -14 1 -14 13 0 23 -26 35 -34 15 -3 -8 -11 -14 -18
-14 -9 0 -9 3 2 11 12 8 9 9 -12 5 -17 -4 -32 -1 -42 9 -8 8 -24 15 -35 15
-25 0 -38 19 -20 31 20 13 23 11 9 -6z m-2255 -15 c3 -5 -3 -6 -14 -3 -10 3
-22 0 -25 -6 -4 -6 -16 -11 -26 -11 -10 0 -20 -5 -22 -10 -2 -6 -17 -8 -36 -4
-23 5 -29 9 -20 15 7 4 24 6 38 3 17 -4 21 -3 12 4 -11 7 -11 10 3 15 10 4 14
3 9 -4 -4 -7 1 -9 12 -7 11 2 18 9 17 15 -2 11 44 5 52 -7z m2208 -66 c-4 -10
-2 -15 3 -11 8 5 52 -51 47 -60 -4 -8 11 -43 18 -43 5 0 9 -8 9 -17 0 -9 10
-28 23 -41 14 -16 17 -23 7 -20 -8 2 -23 20 -33 39 -10 19 -22 33 -27 32 -5
-2 -6 5 -3 14 4 11 3 14 -5 9 -8 -5 -10 -1 -5 10 4 11 2 15 -4 11 -6 -4 -16 0
-23 8 -9 10 -9 15 -1 15 6 0 11 7 11 16 0 13 -3 14 -14 5 -11 -10 -20 -3 -44
33 -26 39 -28 44 -12 43 10 -1 16 -5 14 -9 -3 -4 0 -8 6 -8 8 0 10 9 6 28 -7
26 -6 26 13 -5 12 -19 18 -40 14 -49z m-2387 -11 c-27 -16 -39 -16 -30 -2 4 7
1 10 -7 7 -8 -3 -13 -10 -12 -15 1 -5 -13 -14 -30 -21 l-32 -12 35 30 c24 21
42 28 60 25 14 -3 19 -2 12 1 -6 3 -10 10 -7 15 4 5 12 3 20 -4 11 -10 9 -14
-9 -24z m47 30 c-7 -2 -19 -2 -25 0 -7 3 -2 5 12 5 14 0 19 -2 13 -5z m2690
-36 c54 -23 56 -25 32 -31 -16 -4 -38 -1 -57 8 -17 9 -35 13 -41 9 -5 -3 -7
-1 -4 4 4 6 -5 14 -20 18 -21 5 -24 8 -12 16 16 11 24 9 102 -24z m-981 -2
c-2 -9 0 -15 5 -12 4 3 14 -1 21 -9 7 -8 10 -14 5 -14 -4 0 2 -6 13 -14 10 -8
17 -16 14 -19 -3 -2 -27 18 -55 45 -44 43 -47 48 -25 45 17 -3 24 -10 22 -22z
m1088 -40 l25 -14 -25 -1 c-22 -1 -23 -2 -7 -11 13 -8 22 -7 32 1 10 8 15 8
20 0 4 -6 14 -9 24 -6 12 5 11 2 -3 -9 -15 -11 -16 -15 -5 -15 8 0 20 5 26 11
6 6 13 7 16 2 3 -4 -1 -13 -7 -19 -10 -9 -29 -5 -80 15 -38 14 -61 27 -52 29
9 2 16 8 16 13 0 12 -7 11 -31 -1 -12 -7 -19 -7 -19 -1 0 8 16 16 40 19 3 1
16 -5 30 -13z m160 -66 c12 -8 9 -9 -10 -4 -33 8 -5 -10 30 -19 20 -6 22 -5
10 4 -12 9 -10 10 9 4 38 -10 91 -36 64 -30 -13 2 -25 1 -28 -4 -5 -8 -84 16
-99 30 -5 5 -16 6 -25 3 -12 -3 -11 -1 3 11 23 19 26 19 46 5z m-3265 -68 c3
-5 0 -13 -6 -17 -7 -4 -9 -3 -5 4 3 5 0 13 -6 15 -9 4 -10 6 -1 6 6 1 14 -3
18 -8z m3417 -5 c-3 -5 1 -7 10 -4 8 4 20 3 27 -2 9 -5 2 -9 -18 -12 -17 -2
-28 -2 -25 1 3 3 -10 11 -28 17 l-33 12 36 -2 c21 0 34 -5 31 -10z m350 -7
c-13 -5 -34 -11 -48 -13 -13 -3 -28 -7 -34 -11 -5 -3 -10 -2 -10 4 0 5 -6 12
-12 14 -7 2 -2 3 12 2 14 -1 36 1 50 5 14 5 34 8 45 8 18 1 17 0 -3 -9z m-984
-24 c-3 -3 -9 2 -12 12 -6 14 -5 15 5 6 7 -7 10 -15 7 -18z m847 15 c-3 -5
-10 -10 -16 -10 -5 0 -9 5 -9 10 0 6 7 10 16 10 8 0 12 -4 9 -10z m-130 -10
c3 -5 2 -10 -4 -10 -5 0 -13 5 -16 10 -3 6 -2 10 4 10 5 0 13 -4 16 -10z m85
-1 c0 -7 13 -9 38 -6 l37 5 -37 -11 c-43 -12 -48 -24 -16 -36 20 -7 19 -8 -12
-14 -18 -4 -31 -9 -29 -12 3 -2 21 0 41 4 36 8 69 -1 55 -16 -5 -4 -12 -1 -17
7 -7 11 -10 12 -10 2 0 -8 -6 -12 -12 -9 -7 2 -23 1 -35 -4 -27 -10 -40 16
-15 31 13 8 14 13 4 17 -10 4 -10 8 -1 19 8 10 8 14 0 14 -6 0 -11 5 -11 10 0
6 5 10 10 10 6 0 10 -5 10 -11z m-67 -10 c20 1 37 -3 37 -8 0 -5 -7 -8 -16 -7
-9 0 -19 -5 -21 -12 -3 -7 1 -10 10 -6 8 3 18 0 23 -7 4 -7 3 -10 -4 -5 -6 3
-13 2 -17 -4 -3 -5 -1 -10 4 -10 6 0 11 -7 11 -15 0 -8 5 -15 10 -15 6 0 10
-7 10 -16 0 -23 -18 -7 -41 37 -14 28 -33 47 -62 60 -34 17 -36 19 -12 14 17
-4 47 -6 68 -6z m-3578 -8 c3 -5 2 -12 -3 -15 -5 -3 -9 1 -9 9 0 17 3 19 12 6z
m3664 -100 c9 -16 8 -18 -8 -14 -9 2 -18 11 -18 19 0 20 14 17 26 -5z m101 15
c0 -9 -30 -14 -35 -6 -4 6 3 10 14 10 12 0 21 -2 21 -4z m40 -6 c0 -5 -8 -10
-17 -11 -14 0 -13 -2 5 -9 34 -14 26 -20 -9 -8 l-32 11 24 13 c29 16 29 16 29
4z m75 -30 c28 -12 44 -24 39 -31 -4 -7 0 -9 12 -6 11 3 42 -5 69 -19 28 -13
40 -22 28 -20 -31 6 -29 -6 4 -21 33 -16 54 -17 33 -2 -12 9 -12 10 3 5 10 -3
24 -6 30 -6 7 0 6 -5 -3 -11 -12 -9 -10 -10 8 -6 19 5 21 3 11 -9 -12 -15 1
-20 17 -5 5 5 31 -2 64 -18 30 -15 82 -38 114 -51 55 -22 58 -24 37 -34 -18
-8 -32 -5 -64 11 -23 11 -57 27 -76 34 -19 7 -29 15 -23 17 7 2 9 8 6 13 -3 6
-11 5 -20 -2 -12 -9 -13 -9 -9 3 7 17 -21 33 -30 18 -4 -6 -1 -10 6 -10 7 0 9
-3 6 -7 -4 -4 -21 3 -37 15 -16 12 -33 22 -39 22 -5 0 -38 14 -73 31 -52 25
-57 29 -28 24 l35 -6 -28 16 c-22 13 -31 14 -43 4 -11 -9 -14 -9 -14 1 0 7 -7
10 -16 6 -10 -4 -13 -2 -8 6 5 8 2 9 -9 5 -13 -5 -17 -1 -17 14 0 11 -5 17
-10 14 -6 -4 -8 -11 -5 -16 3 -5 -1 -6 -10 -3 -11 5 -13 10 -5 19 8 10 7 14
-7 18 -10 3 -13 5 -6 6 6 0 32 -8 58 -19z m-207 -14 c13 -2 32 -24 32 -38 0
-4 -7 -5 -15 -2 -9 4 -15 1 -15 -7 0 -15 -27 20 -28 35 0 5 -6 13 -14 18 -9 7
-7 8 7 3 11 -4 26 -8 33 -9z m42 -67 c0 -4 -5 -11 -11 -15 -8 -4 -8 -9 0 -17
6 -6 11 -16 11 -21 -1 -16 -24 26 -25 45 -1 9 5 16 12 16 7 0 13 -4 13 -8z
m31 -51 c7 -12 7 -18 1 -14 -6 3 -12 0 -15 -6 -2 -7 -6 1 -9 19 -5 34 5 35 23
1z m19 -42 c0 -3 -4 -8 -10 -11 -5 -3 -10 -1 -10 4 0 6 5 11 10 11 6 0 10 -2
10 -4z m35 -69 c8 -20 13 -37 11 -37 -6 0 -36 61 -36 73 0 16 8 4 25 -36z
m575 -1 c0 -2 -7 -7 -16 -10 -8 -3 -12 -2 -9 4 6 10 25 14 25 6z m50 -31 c14
-8 19 -14 10 -14 -8 0 -26 6 -40 14 -14 8 -19 14 -10 14 8 0 26 -6 40 -14z
m60 -25 c8 -5 11 -10 5 -10 -5 0 -17 5 -25 10 -8 5 -10 10 -5 10 6 0 17 -5 25
-10z m40 -20 c-8 -5 -19 -10 -25 -10 -5 0 -3 5 5 10 8 5 20 10 25 10 6 0 3 -5
-5 -10z m95 -15 l30 -12 -28 0 c-15 0 -30 3 -33 8 -3 5 -10 9 -15 9 -6 0 -7
-4 -4 -10 7 -12 -2 -12 -30 0 -18 8 -18 9 -2 9 11 1 15 6 11 12 -7 12 16 7 71
-16z m91 -38 c8 3 14 0 14 -6 0 -6 8 -8 18 -5 14 5 15 4 2 -5 -13 -9 -12 -11
5 -12 11 -1 29 -2 40 -1 20 2 20 2 1 -13 -24 -18 -40 -20 -30 -3 5 8 0 9 -14
6 -12 -4 -20 -3 -17 2 7 11 -19 19 -47 14 -21 -4 -21 -4 -3 5 l20 10 -20 2
c-11 1 -24 3 -30 4 -5 2 -19 4 -30 5 -14 2 -12 4 10 9 18 5 37 2 49 -5 10 -7
25 -10 32 -7z m101 -63 c-3 -3 -12 -4 -19 -1 -8 3 -5 6 6 6 11 1 17 -2 13 -5z
m93 -5 c-12 -8 -8 -9 15 -6 17 2 24 2 17 0 -11 -4 -11 -7 0 -20 12 -15 10 -15
-12 -3 -13 7 -37 13 -53 12 -27 -1 -28 0 -11 13 11 8 28 14 39 15 17 0 18 -2
5 -11z m83 -26 c-7 -2 -19 -2 -25 0 -7 3 -2 5 12 5 14 0 19 -2 13 -5z m37 -3
c0 -5 -2 -10 -4 -10 -3 0 -8 5 -11 10 -3 6 -1 10 4 10 6 0 11 -4 11 -10z"/>
<path d="M15120 23720 c0 -5 5 -10 10 -10 6 0 10 5 10 10 0 6 -4 10 -10 10 -5
0 -10 -4 -10 -10z"/>
<path d="M14780 23621 c0 -6 15 -9 34 -8 19 1 32 5 29 10 -6 10 -63 9 -63 -2z"/>
<path d="M14244 23523 c4 -6 2 -13 -4 -15 -6 -2 -1 -9 10 -16 24 -15 26 -3 4
24 -8 10 -13 14 -10 7z"/>
<path d="M14300 23461 c0 -5 7 -12 16 -15 14 -5 15 -4 4 9 -14 17 -20 19 -20
6z"/>
<path d="M15287 23583 c-3 -5 6 -9 20 -10 19 -1 22 1 12 8 -17 11 -26 11 -32
2z"/>
<path d="M15087 23523 c-10 -9 -9 -23 2 -23 5 0 11 7 15 15 5 15 -5 20 -17 8z"/>
<path d="M15138 23453 c-2 -5 13 -25 34 -46 21 -20 38 -33 38 -28 0 5 -7 15
-16 22 -9 7 -20 23 -25 36 -8 23 -24 30 -31 16z"/>
<path d="M15856 23362 c-2 -4 1 -18 8 -31 12 -22 13 -22 13 8 0 29 -10 40 -21
23z"/>
<path d="M16188 23325 c30 -14 59 -25 65 -25 7 0 -12 11 -41 25 -30 14 -59 25
-65 25 -7 0 12 -11 41 -25z"/>
<path d="M16368 23243 c7 -3 16 -2 19 1 4 3 -2 6 -13 5 -11 0 -14 -3 -6 -6z"/>
<path d="M16548 23183 c7 -3 16 -2 19 1 4 3 -2 6 -13 5 -11 0 -14 -3 -6 -6z"/>
<path d="M17050 22966 c0 -2 7 -7 16 -10 8 -3 12 -2 9 4 -6 10 -25 14 -25 6z"/>
<path d="M17385 22800 c28 -12 37 -12 30 0 -3 6 -16 10 -28 9 -21 0 -21 -1 -2
-9z"/>
<path d="M17461 22766 c2 -2 18 -6 34 -10 22 -5 26 -4 15 4 -14 9 -59 15 -49
6z"/>
<path d="M16830 22951 c0 -6 4 -13 10 -16 6 -3 7 1 4 9 -7 18 -14 21 -14 7z"/>
<path d="M12646 23177 c-22 -16 -24 -54 -6 -98 10 -23 31 -39 93 -71 205 -103
398 -240 535 -382 51 -53 98 -96 103 -96 6 0 7 5 4 11 -4 6 -1 10 6 8 27 -3
39 1 39 15 0 8 3 17 8 20 9 5 7 -93 -3 -102 -3 -3 -15 -1 -25 6 -38 23 -49 15
-47 -34 2 -46 2 -47 -33 -50 l-35 -4 28 17 c24 15 36 33 22 33 -12 0 -76 -50
-64 -50 8 0 2 -8 -13 -18 -16 -9 -28 -21 -28 -26 0 -4 -6 -3 -14 3 -10 9 -17
7 -27 -6 -12 -15 -12 -16 4 -10 9 3 17 2 17 -3 0 -18 21 -10 45 18 13 15 25
22 25 15 0 -6 -5 -15 -11 -19 -8 -4 -7 -9 2 -16 11 -8 10 -9 -3 -4 -10 3 -20
0 -24 -5 -7 -12 -52 -3 -72 14 -11 8 -9 13 9 23 13 6 29 10 36 7 7 -3 13 0 13
6 0 6 -5 11 -12 11 -6 0 -1 11 12 25 17 18 26 22 31 13 4 -7 11 -9 16 -5 4 5
1 13 -7 18 -12 8 -11 10 5 8 38 -3 47 1 41 16 -7 19 -1 19 18 -1 9 -8 16 -11
16 -5 0 5 -4 13 -10 16 -17 11 11 43 34 38 20 -3 20 -3 1 5 -20 9 -51 4 -40
-6 2 -3 -5 -10 -18 -17 -12 -6 -21 -16 -20 -22 1 -6 -4 -10 -11 -9 -18 1 -157
-114 -151 -124 3 -4 -3 -11 -12 -14 -10 -4 -14 -4 -11 0 10 9 -12 24 -172 126
-428 271 -640 375 -910 447 -299 80 -620 83 -850 7 -83 -27 -214 -85 -244
-109 -18 -13 -15 -15 45 -21 446 -48 947 -244 1381 -542 120 -82 207 -146 207
-154 1 -3 -3 -11 -8 -19 -7 -10 -26 0 -87 46 -435 329 -955 555 -1424 618
-136 19 -195 19 -224 0 -22 -15 -26 -11 -157 118 -137 136 -226 197 -287 197
-75 0 -244 -144 -275 -234 -20 -57 -14 -90 22 -130 37 -41 149 -114 281 -185
62 -33 115 -63 117 -65 3 -2 -3 -19 -13 -37 -34 -66 -1 -280 72 -477 111 -297
371 -700 677 -1050 69 -80 87 -106 76 -113 -18 -11 -46 17 -162 156 -51 61
-96 115 -102 121 -5 6 -50 65 -100 133 -289 392 -459 738 -503 1029 l-17 113
-33 -54 c-49 -82 -108 -221 -137 -327 -21 -76 -28 -125 -32 -248 -7 -203 14
-336 89 -542 77 -212 171 -386 473 -870 121 -195 231 -372 243 -392 l21 -38
-492 0 c-548 0 -578 -3 -703 -65 -122 -60 -198 -164 -175 -241 5 -16 45 -110
89 -209 91 -206 381 -853 419 -935 14 -30 69 -154 123 -275 54 -121 124 -276
155 -345 31 -69 63 -138 70 -155 111 -245 140 -302 181 -357 228 -298 679
-579 1389 -865 88 -36 189 -76 225 -88 36 -13 103 -38 150 -55 177 -65 632
-213 770 -251 36 -10 88 -24 115 -32 100 -29 394 -110 545 -149 153 -40 235
-60 400 -98 47 -11 123 -28 170 -40 211 -50 270 -61 281 -54 7 4 10 3 6 -3 -4
-6 30 -16 86 -26 51 -9 123 -23 162 -32 38 -8 82 -15 96 -15 14 0 34 -10 45
-22 11 -13 12 -17 3 -11 -16 13 -59 7 -59 -9 0 -5 -4 -7 -9 -3 -8 4 -121 -28
-181 -52 -8 -3 -19 -7 -25 -8 -5 -2 -76 -21 -158 -43 -81 -23 -163 -44 -182
-48 -19 -3 -38 -10 -41 -16 -3 -5 -14 -6 -25 -3 -21 7 -27 -10 -6 -18 6 -3 2
-4 -10 -4 -12 1 -19 5 -17 9 3 4 -1 8 -9 8 -8 0 -17 -9 -20 -20 -4 -15 -13
-20 -39 -20 -25 0 -29 3 -18 10 23 15 -2 13 -80 -6 -36 -9 -74 -17 -85 -19
-164 -28 -169 -29 -145 -36 l25 -7 -27 -1 c-14 -1 -35 -4 -45 -7 -15 -5 -15
-4 -3 5 13 9 11 11 -7 11 -12 0 -25 -5 -29 -11 -3 -6 -18 -9 -33 -6 -14 3 -64
-1 -111 -10 -96 -16 -110 -18 -235 -27 -49 -4 -128 -11 -175 -17 -108 -12
-318 -21 -538 -21 -95 0 -175 -4 -178 -9 -3 -5 -13 -9 -22 -8 -14 0 -13 2 3 8
21 9 -48 16 -250 28 -60 3 -130 7 -155 8 -54 3 -112 11 -189 25 -31 5 -90 13
-131 16 -41 3 -80 10 -86 15 -7 5 -24 7 -40 3 -21 -5 -25 -4 -19 6 6 10 2 12
-15 7 -13 -3 -29 -2 -34 2 -18 14 -66 22 -66 11 0 -5 -8 -10 -17 -10 -14 0
-15 2 -5 9 10 6 7 10 -12 13 -15 3 -26 1 -26 -6 0 -6 -5 -3 -11 7 -14 24 -38
22 -32 -3 3 -11 10 -17 16 -13 5 3 7 1 4 -4 -7 -11 51 -145 64 -151 4 -2 5
-10 2 -19 -4 -10 -2 -14 4 -10 6 4 14 0 17 -9 3 -8 2 -12 -4 -9 -5 3 -1 -11 9
-32 11 -21 25 -53 32 -71 18 -48 29 -26 20 41 -4 31 -5 57 -1 57 11 0 21 -120
11 -137 -5 -10 4 -40 29 -92 21 -42 41 -86 44 -98 12 -39 31 -26 33 21 1 35
-2 44 -13 39 -14 -5 -18 5 -15 44 1 11 -3 24 -8 28 -6 3 -11 13 -11 22 0 11 9
6 31 -15 17 -17 29 -36 26 -44 -4 -9 -6 -7 -6 5 -1 24 -21 22 -21 -3 0 -18 11
-25 33 -21 5 1 6 -7 2 -17 -9 -30 12 -71 40 -78 14 -3 31 -16 37 -27 11 -21
11 -21 -13 -4 -13 9 -31 20 -39 24 -8 4 -18 11 -22 17 -5 7 -8 7 -8 -1 0 -15
36 -53 50 -53 14 0 12 -23 -4 -46 -14 -19 -14 -19 -13 1 1 12 -3 19 -11 17 -8
-1 -11 2 -7 8 3 6 12 7 18 3 7 -3 0 6 -16 22 -15 15 -31 24 -35 20 -4 -4 -1
-10 6 -12 6 -3 12 -13 12 -22 0 -10 11 -29 24 -43 12 -14 26 -33 29 -42 4 -10
12 -13 23 -9 11 4 15 2 11 -4 -15 -24 107 -109 133 -93 8 5 18 6 24 3 5 -4 1
-10 -10 -15 -13 -6 -8 -7 16 -3 19 3 39 10 45 16 7 9 2 10 -18 5 -16 -4 -26
-3 -23 2 3 5 -13 8 -35 6 -24 -2 -37 1 -33 7 3 5 15 7 26 3 16 -5 19 -3 12 7
-6 10 -3 10 11 -1 10 -8 21 -14 24 -12 11 5 92 -10 86 -17 -4 -3 -23 -11 -43
-18 -36 -12 -36 -12 -4 -7 20 4 32 1 32 -5 0 -17 7024 -11 7041 6 6 6 18 9 27
6 11 -5 13 -3 7 7 -5 8 -3 11 6 8 16 -6 100 34 118 56 7 8 10 20 6 26 -9 15
-27 1 -21 -17 4 -9 2 -11 -6 -7 -7 5 -8 2 -3 -7 5 -8 4 -11 -1 -6 -5 5 -9 22
-10 38 -1 27 2 30 22 25 19 -5 22 -2 19 19 -2 26 9 33 21 13 4 -6 2 -14 -5
-16 -8 -3 -7 -8 5 -17 15 -11 20 -9 35 9 12 15 14 23 6 28 -8 5 -6 8 6 8 10 0
20 8 24 18 3 9 12 24 19 32 21 25 115 231 101 224 -7 -4 -5 1 4 12 9 10 14 25
11 33 -2 8 0 11 6 7 6 -3 24 26 42 71 18 43 37 84 42 90 6 7 8 20 4 28 -3 9
-2 14 3 11 12 -8 22 20 14 41 -4 10 -2 14 4 10 5 -4 15 5 22 19 15 33 14 44
-4 44 -8 0 -15 5 -15 12 0 6 -6 4 -12 -5 -12 -16 -13 -15 -13 7 0 27 14 28 40
2 18 -18 19 -18 32 0 13 18 17 37 14 63 -2 7 2 10 7 7 6 -3 13 1 16 10 3 8 2
12 -4 9 -6 -3 -7 1 -4 10 4 9 9 13 12 10 3 -3 20 28 37 67 23 53 29 77 22 89
-7 12 -5 23 6 40 13 18 17 20 17 7 0 -9 -4 -20 -10 -23 -5 -3 -10 -11 -10 -17
0 -7 6 -6 15 2 8 7 15 17 15 22 0 6 11 33 25 60 21 42 23 53 13 66 -11 13 -10
15 5 9 16 -6 18 -3 13 26 -4 23 -4 27 3 12 8 -18 10 -18 16 -3 4 9 4 22 0 28
-4 6 -2 9 4 8 8 -2 218 443 229 485 1 4 8 20 16 35 8 15 35 75 61 132 26 58
84 188 130 290 227 507 264 588 283 630 76 165 152 336 152 342 0 4 -28 -6
-62 -21 -90 -41 -392 -153 -538 -199 -657 -211 -1374 -339 -2280 -408 -282
-21 -1134 -30 -1440 -15 -348 18 -860 71 -860 90 0 4 39 24 88 46 229 101 826
410 970 502 29 18 54 33 56 33 12 0 342 207 489 307 197 133 317 222 502 372
174 141 195 160 375 341 289 291 470 547 579 823 28 71 81 250 81 275 0 9
-102 12 -475 12 -328 0 -475 3 -475 11 0 5 5 7 10 4 19 -11 10 41 -10 63 -11
12 -20 26 -20 32 0 17 -28 11 -39 -7 -9 -17 -59 -18 -823 -19 -447 -1 -920 -4
-1050 -9 -180 -5 -238 -4 -238 4 0 9 -24 10 -92 5 -124 -9 -273 -10 -386 -4
-71 4 -92 2 -92 -8 0 -7 -7 -15 -15 -18 -8 -4 -15 -12 -15 -20 0 -16 -4 -16
300 -15 113 0 223 -3 245 -8 23 -5 -519 -9 -1287 -10 -729 0 -1333 2 -1342 5
-9 3 -13 10 -10 15 3 5 1 9 -5 9 -10 0 -23 29 -18 41 1 4 -5 15 -14 25 -22 24
-79 139 -79 157 0 8 -7 20 -16 28 -8 7 -13 21 -11 31 3 10 0 21 -5 25 -7 4 -8
1 -3 -7 5 -8 4 -11 -3 -7 -5 4 -8 16 -5 27 3 11 1 20 -5 20 -6 0 -16 17 -22
38 -7 20 -21 56 -31 79 -11 23 -20 52 -22 65 -1 13 -6 26 -11 30 -5 3 -9 20
-9 37 0 16 -4 28 -7 26 -4 -3 -10 13 -14 35 -3 21 -11 51 -18 67 -6 15 -13 44
-14 63 -2 19 -8 36 -13 38 -5 2 -7 20 -4 40 4 29 2 34 -7 22 -9 -12 -10 -6 -5
27 4 26 2 50 -6 64 -7 13 -11 40 -11 60 1 20 -4 56 -11 80 -10 33 -11 76 -5
174 5 72 8 162 8 200 0 73 8 130 17 121 10 -10 31 20 37 55 3 19 3 27 0 19
-14 -32 -27 -42 -35 -28 -12 19 -11 36 2 18 7 -11 8 -1 5 35 -4 38 -3 43 3 20
8 -29 9 -29 16 -7 6 19 10 20 22 10 14 -11 15 -6 9 42 -4 37 -3 48 3 35 8 -17
10 -18 10 -2 1 9 4 16 9 16 25 -4 32 4 32 39 0 21 5 43 11 49 8 8 8 17 -1 33
-18 34 -5 35 20 0 12 -16 26 -28 31 -25 5 4 9 2 9 -4 0 -5 -4 -13 -10 -16 -5
-3 -10 -2 -10 4 0 6 -7 8 -15 5 -9 -4 -15 -19 -15 -35 0 -19 5 -29 15 -29 8 0
15 7 15 16 0 8 5 12 11 8 6 -3 9 -15 6 -25 -3 -11 0 -19 8 -19 18 0 29 68 14
86 -7 8 -7 14 -1 14 5 0 17 -10 26 -22 15 -21 16 -22 14 -3 -2 16 4 21 30 23
17 2 32 7 32 13 0 5 15 9 33 9 32 1 69 20 66 36 -1 5 -1 19 0 31 1 16 6 20 21
16 11 -3 20 0 20 6 0 6 9 11 20 11 11 0 20 5 20 10 0 6 14 10 30 10 17 0 30 5
30 10 0 6 18 10 40 10 22 0 40 5 40 10 0 6 15 10 33 10 32 1 69 20 66 36 -5
28 3 44 21 44 11 0 20 5 20 10 0 6 9 10 20 10 11 0 20 5 20 10 0 6 14 10 30
10 17 0 30 5 30 10 0 6 18 10 40 10 22 0 40 5 40 10 0 6 15 10 33 10 32 1 69
20 66 36 -5 28 3 44 21 44 11 0 20 5 20 10 0 6 9 10 20 10 11 0 20 5 20 10 0
6 14 10 30 10 17 0 30 5 30 10 0 6 18 10 40 10 22 0 40 5 40 10 0 6 15 10 33
10 42 1 67 21 67 54 0 19 5 26 20 26 11 0 20 5 20 10 0 6 9 10 20 10 11 0 20
5 20 10 0 6 -9 10 -20 10 -11 0 -20 6 -20 13 0 22 22 37 55 37 16 0 25 -4 19
-8 -8 -5 -5 -13 7 -26 11 -11 19 -14 19 -8 0 7 16 12 40 12 22 0 40 5 40 10 0
6 15 10 33 10 42 1 67 21 67 54 0 19 5 26 20 26 11 0 20 5 20 10 0 6 9 10 20
10 11 0 20 5 20 10 0 6 -9 10 -20 10 -11 0 -20 6 -20 13 0 22 22 37 54 37 17
0 26 -4 20 -8 -8 -5 -5 -13 7 -26 11 -11 19 -14 19 -8 0 7 16 12 40 12 22 0
40 5 40 10 0 6 13 10 28 10 15 0 44 8 63 18 28 14 34 22 29 38 -7 19 -7 19
-12 -1 -4 -15 -6 -13 -7 8 -1 16 3 26 9 22 5 -3 26 -3 46 1 25 5 32 9 22 15
-17 11 -10 11 30 0 22 -7 30 -6 26 1 -4 6 1 8 16 3 14 -4 20 -3 16 3 -3 5 6
13 21 17 16 4 29 2 33 -5 4 -7 9 -10 11 -9 2 2 13 -2 24 -9 l20 -11 -20 -1
-20 -1 20 -9 c12 -5 14 -9 6 -9 -23 -1 -6 -12 33 -21 20 -4 39 -4 42 1 3 5 14
9 24 9 10 0 22 5 26 11 4 7 -3 10 -19 7 -15 -1 -25 1 -24 5 1 5 -9 15 -23 22
-29 17 -52 20 -30 4 13 -8 12 -10 -3 -7 -10 2 -18 8 -19 13 -1 17 -58 36 -76
26 -21 -11 -123 -10 -116 1 3 4 -7 8 -21 8 -14 0 -24 -3 -21 -8 2 -4 -7 -12
-20 -19 -18 -8 -22 -8 -17 0 4 7 6 20 5 29 -3 18 42 37 55 24 4 -3 -3 -6 -15
-6 -11 0 -24 -5 -28 -11 -4 -7 0 -9 14 -5 12 4 49 2 82 -5 40 -8 65 -8 71 -2
7 7 -24 19 -88 35 -54 15 -105 26 -113 27 -8 0 -34 4 -58 9 -23 5 -64 8 -90 6
-28 -3 -40 -1 -29 4 28 12 -309 13 -377 1 -34 -6 -72 -12 -86 -14 -14 -1 -27
-4 -30 -5 -9 -4 -25 -7 -51 -8 -17 -1 -28 -9 -32 -22 -3 -12 -13 -20 -24 -19
-16 1 -16 2 0 6 9 2 17 9 17 15 0 6 -8 7 -17 3 -10 -4 -31 -9 -48 -12 -16 -3
-31 -9 -33 -13 -2 -5 -11 -6 -20 -3 -14 5 -15 3 -5 -7 10 -11 18 -11 38 -2 17
8 32 8 47 1 22 -9 22 -9 -2 -5 -14 3 -32 1 -40 -4 -10 -6 -5 -9 18 -8 18 1 36
-2 40 -6 12 -13 -82 -3 -104 11 -18 11 -27 11 -50 1 -16 -7 -33 -18 -37 -25
-4 -7 -13 -13 -20 -13 -8 0 -6 4 3 11 17 12 12 11 -42 -11 -21 -8 -38 -18 -38
-23 0 -4 -3 -6 -8 -3 -4 2 -18 -2 -32 -10 -14 -7 -19 -13 -12 -14 9 0 11 -7 7
-20 -3 -11 -2 -20 3 -20 6 0 9 -11 8 -24 -1 -20 -6 -23 -28 -20 -15 1 -34 -4
-42 -12 -8 -8 -17 -10 -20 -5 -4 5 0 12 6 15 7 3 1 4 -14 1 -16 -3 -28 0 -31
8 -4 9 -6 9 -6 0 -1 -7 -6 -13 -12 -13 -8 0 -8 5 1 15 10 12 16 13 28 3 13
-11 15 -10 9 5 -6 17 -5 17 15 2 25 -17 38 -19 38 -6 0 5 -10 11 -22 14 -12 4
-19 9 -16 12 3 4 15 2 26 -4 17 -9 22 -8 27 9 3 11 12 20 18 20 7 0 6 4 -2 9
-10 7 -29 2 -60 -15 -57 -30 -65 -30 -85 1 -37 57 -162 188 -243 256 -49 40
-94 78 -101 85 -11 9 -6 19 29 53 46 44 47 65 2 36 -44 -29 -55 -42 -40 -48 7
-3 4 -6 -6 -6 -12 -1 -16 -5 -11 -13 5 -9 2 -9 -9 1 -18 15 -23 26 -7 16 6 -3
10 -1 10 4 0 6 -10 10 -22 9 -13 -1 -49 15 -81 36 -63 40 -254 136 -272 136
-6 0 -19 -6 -29 -13z m484 -131 c0 -2 -12 -11 -27 -20 l-28 -17 24 20 c23 21
31 25 31 17z m1130 -225 c22 -7 20 -9 -20 -15 -26 -5 -61 -3 -80 3 -31 9 -29
10 25 6 44 -3 52 -2 30 4 -27 8 -28 9 -5 9 14 0 36 -3 50 -7z m115 -1 c-3 -5
-10 -10 -16 -10 -5 0 -9 5 -9 10 0 6 7 10 16 10 8 0 12 -4 9 -10z m112 -7
c-10 -9 -77 -11 -83 -1 -3 4 16 8 42 8 26 0 44 -3 41 -7z m-154 -10 c-7 -2
-21 -2 -30 0 -10 3 -4 5 12 5 17 0 24 -2 18 -5z m220 0 c-7 -2 -19 -2 -25 0
-7 3 -2 5 12 5 14 0 19 -2 13 -5z m80 0 c-7 -2 -19 -2 -25 0 -7 3 -2 5 12 5
14 0 19 -2 13 -5z m-638 -23 c-3 -5 -11 -10 -16 -10 -6 0 -7 5 -4 10 3 6 11
10 16 10 6 0 7 -4 4 -10z m842 -16 c-3 -3 -12 -4 -19 -1 -8 3 -5 6 6 6 11 1
17 -2 13 -5z m-845 -22 c-4 -12 -1 -12 19 -3 22 11 23 11 5 -3 -15 -12 -23
-13 -39 -4 -16 8 -22 8 -25 -1 -5 -16 -22 -14 -22 3 0 14 18 21 51 22 10 0 15
-6 11 -14z m-206 -44 c-9 -5 -21 -6 -26 -3 -5 3 -7 0 -4 -8 3 -10 -4 -13 -30
-12 -40 1 -62 15 -25 15 13 1 35 7 48 14 14 8 31 11 39 8 12 -4 11 -7 -2 -14z
m1250 -7 c-3 -5 1 -12 10 -15 26 -10 7 -23 -28 -18 -28 4 -30 6 -13 13 20 8
20 8 0 9 l-20 1 20 9 c27 12 37 12 31 1z m-1076 -5 c0 -2 -7 -6 -15 -10 -8 -3
-15 -1 -15 4 0 6 7 10 15 10 8 0 15 -2 15 -4z m-231 -22 c5 3 13 0 19 -7 8 -9
-7 -12 -69 -12 -50 0 -78 3 -76 10 2 5 11 9 20 7 8 -1 18 2 21 7 4 6 19 6 41
0 19 -6 39 -8 44 -5z m955 -9 c4 -12 -3 -15 -36 -15 -35 0 -39 2 -28 15 7 8
23 15 35 15 13 0 25 -7 29 -15z m-604 -5 c0 -5 -7 -10 -16 -10 -8 0 -12 5 -9
10 3 6 10 10 16 10 5 0 9 -4 9 -10z m-530 -25 c-7 -9 -15 -13 -19 -10 -3 3 1
10 9 15 21 14 24 12 10 -5z m1010 5 c0 -5 -9 -10 -21 -10 -11 0 -17 5 -14 10
3 6 13 10 21 10 8 0 14 -4 14 -10z m-196 -135 c4 -12 -3 -15 -36 -15 -35 0
-39 2 -28 15 7 8 23 15 35 15 13 0 25 -7 29 -15z m-849 -5 c-3 -5 -17 -10 -31
-10 -13 0 -24 5 -24 10 0 6 14 10 31 10 17 0 28 -4 24 -10z m725 -20 c0 -5 -9
-10 -21 -10 -11 0 -17 5 -14 10 3 6 13 10 21 10 8 0 14 -4 14 -10z m-1065
-140 c16 -17 16 -20 2 -26 -22 -8 -36 3 -34 26 2 25 9 25 32 0z m869 5 c4 -12
-3 -15 -36 -15 -35 0 -39 2 -28 15 7 8 23 15 35 15 13 0 25 -7 29 -15z m-124
-25 c0 -5 -7 -10 -15 -10 -8 0 -15 5 -15 10 0 6 7 10 15 10 8 0 15 -4 15 -10z
m-771 -86 c-7 -8 -18 -13 -26 -10 -8 4 -17 -4 -23 -19 -5 -14 -16 -28 -24 -31
-8 -3 -17 -15 -20 -27 -5 -18 -8 -19 -15 -8 -7 12 -10 11 -14 -5 -2 -10 -3 -6
-3 11 1 22 8 33 31 45 21 10 30 22 29 38 0 12 5 22 11 22 7 0 18 7 25 15 11
13 14 13 27 -1 12 -12 13 -17 2 -30z m694 39 c-13 -2 -23 -9 -23 -14 0 -5 -7
-9 -15 -9 -9 0 -12 6 -9 15 4 9 18 14 38 14 23 -1 25 -3 9 -6z m-563 -23 c0
-5 -4 -10 -10 -10 -5 0 -10 5 -10 10 0 6 5 10 10 10 6 0 10 -4 10 -10z m-60
-70 c0 -5 -7 -10 -15 -10 -8 0 -15 5 -15 10 0 6 7 10 15 10 8 0 15 -4 15 -10z
m380 -20 c0 -5 -7 -10 -15 -10 -8 0 -15 5 -15 10 0 6 7 10 15 10 8 0 15 -4 15
-10z m-586 -70 c-6 -5 -24 21 -24 34 0 6 6 1 14 -10 8 -10 12 -21 10 -24z
m509 23 c-13 -2 -23 -9 -23 -14 0 -5 -7 -9 -15 -9 -9 0 -12 6 -9 15 4 9 18 14
38 14 23 -1 25 -3 9 -6z m-543 -17 c0 -2 -7 -7 -16 -10 -8 -3 -12 -2 -9 4 6
10 25 14 25 6z m140 -16 c0 -11 -4 -20 -10 -20 -5 0 -10 9 -10 20 0 11 5 20
10 20 6 0 10 -9 10 -20z m-96 -17 c3 -10 9 -24 12 -30 3 -7 -1 -13 -9 -13 -15
0 -27 20 -27 46 0 20 16 17 24 -3z m-87 -25 c-1 -13 3 -22 9 -21 9 2 9 -9 2
-37 -6 -22 -16 -40 -24 -40 -18 0 -28 19 -16 33 5 7 9 23 8 37 -1 14 3 30 9
37 14 17 15 16 12 -9z m343 -38 c0 -5 -7 -10 -15 -10 -8 0 -15 5 -15 10 0 6 7
10 15 10 8 0 15 -4 15 -10z m-77 -47 c-13 -2 -23 -9 -23 -14 0 -5 -7 -9 -15
-9 -9 0 -12 6 -9 15 4 9 18 14 38 14 23 -1 25 -3 9 -6z m-281 -23 c24 0 23
-12 -2 -28 -11 -7 -20 -19 -20 -28 0 -9 -5 -12 -11 -8 -6 3 -14 2 -18 -4 -3
-6 -6 6 -6 27 0 31 2 36 11 23 9 -12 12 -13 19 -2 5 9 4 15 -3 18 -7 2 -12 9
-12 15 0 8 4 7 12 -1 7 -7 20 -12 30 -12z m98 -65 c0 -8 -7 -15 -15 -15 -9 0
-12 6 -9 15 4 8 10 15 15 15 5 0 9 -7 9 -15z m-185 -5 c3 -5 1 -10 -4 -10 -6
0 -11 5 -11 10 0 6 2 10 4 10 3 0 8 -4 11 -10z m132 -39 c-13 -34 -37 -31 -37
5 0 19 5 24 24 24 23 0 24 -2 13 -29z m-169 -52 c-10 -5 -18 -15 -18 -20 0 -6
5 -7 11 -4 6 4 5 -2 -2 -13 -15 -24 -31 -19 -22 6 9 25 24 42 37 42 6 0 3 -5
-6 -11z m-51 -101 c-3 -8 -6 -5 -6 6 -1 11 2 17 5 13 3 -3 4 -12 1 -19z m2591
-1775 c-15 -2 -42 -2 -60 0 -18 2 -6 4 27 4 33 0 48 -2 33 -4z m250 0 c-10 -2
-28 -2 -40 0 -13 2 -5 4 17 4 22 1 32 -1 23 -4z m710 -50 c-97 -2 -259 -2
-360 0 -101 1 -21 2 177 2 198 0 280 -1 183 -2z m980 0 c-82 -2 -214 -2 -295
0 -82 1 -15 3 147 3 162 0 229 -2 148 -3z m415 0 c-45 -2 -122 -2 -170 0 -48
1 -11 3 82 3 94 0 133 -2 88 -3z m2450 -3868 c-3 -9 -8 -14 -10 -11 -3 3 -2 9
2 15 9 16 15 13 8 -4z m-39 -71 c3 -8 2 -12 -4 -9 -6 3 -10 10 -10 16 0 14 7
11 14 -7z m-17 -51 c-3 -10 -5 -4 -5 12 0 17 2 24 5 18 2 -7 2 -21 0 -30z
m-52 -33 c3 -5 1 -10 -4 -10 -6 0 -11 5 -11 10 0 6 2 10 4 10 3 0 8 -4 11 -10z
m-38 -97 c-3 -10 -5 -2 -5 17 0 19 2 27 5 18 2 -10 2 -26 0 -35z m-27 -23 c5
8 10 11 11 5 8 -65 8 -79 -1 -65 -5 8 -7 24 -4 35 5 16 4 17 -6 8 -10 -9 -10
-19 -1 -44 6 -18 9 -34 6 -37 -2 -3 -10 16 -17 41 -10 40 -13 44 -25 29 -11
-14 -11 -13 -1 11 8 20 14 24 20 15 6 -10 10 -10 18 2z m-40 -125 c-10 -20
-24 -43 -31 -51 -9 -11 -9 -18 -1 -26 14 -14 16 -48 2 -48 -5 0 -7 6 -4 14 3
7 -1 20 -8 27 -7 8 -13 20 -14 27 -3 33 -5 36 -15 19 -6 -9 -7 -27 -4 -40 5
-19 5 -20 -5 -4 -8 13 -8 27 1 54 11 33 13 35 20 16 4 -11 12 -24 18 -28 17
-10 13 18 -5 44 -21 30 -4 52 26 33 28 -17 31 -15 25 16 -5 24 -4 24 4 5 7
-16 5 -31 -9 -58z m-79 8 c-12 -20 -14 -14 -5 12 4 9 9 14 11 11 3 -2 0 -13
-6 -23z m-4834 11 c-3 -3 -12 -4 -19 -1 -8 3 -5 6 6 6 11 1 17 -2 13 -5z m168
-94 c18 -20 17 -20 -25 -20 l-42 0 23 20 c13 10 24 19 25 20 0 0 9 -9 19 -20z
m4745 -1 c0 -6 -4 -7 -10 -4 -5 3 -10 11 -10 16 0 6 5 7 10 4 6 -3 10 -11 10
-16z m-4880 -29 c0 -5 -12 -10 -27 -9 l-28 1 25 8 c14 4 26 8 28 9 1 1 2 -3 2
-9z m111 0 c21 0 39 -4 39 -8 0 -12 -75 -6 -96 8 -18 11 -18 11 -1 6 10 -3 36
-6 58 -6z m-68 -17 c-7 -2 -19 -2 -25 0 -7 3 -2 5 12 5 14 0 19 -2 13 -5z
m-133 -17 c0 -2 -7 -7 -16 -10 -8 -3 -12 -2 -9 4 6 10 25 14 25 6z m4885 -7
c11 -16 1 -19 -13 -3 -7 8 -8 14 -3 14 5 0 13 -5 16 -11z m-4950 -15 c-11 -8
-19 -22 -17 -30 4 -18 -8 -18 -43 0 l-26 14 43 15 c55 20 68 20 43 1z m4976
-11 c-12 -20 -14 -14 -5 12 4 9 9 14 11 11 3 -2 0 -13 -6 -23z m-5096 -13 c-3
-5 -14 -10 -23 -9 -14 0 -13 2 3 9 27 11 27 11 20 0z m181 -5 c37 -19 21 -19
-31 0 -26 9 -32 14 -19 15 12 0 35 -7 50 -15z m-136 -11 c0 -2 -7 -4 -15 -4
-8 0 -15 4 -15 10 0 5 7 7 15 4 8 -4 15 -8 15 -10z m5006 -17 c3 -3 1 -20 -4
-37 -6 -17 -7 -28 -2 -25 5 3 12 0 16 -6 4 -8 3 -9 -4 -5 -7 4 -12 1 -12 -6
-1 -9 -5 -7 -14 4 -12 16 -42 18 -66 3 -18 -11 -10 24 8 37 10 7 21 21 25 30
6 17 38 20 53 5z m-5077 -11 c8 -10 9 -16 1 -21 -13 -8 -30 3 -30 21 0 18 14
18 29 0z m-144 -16 l20 -9 -20 0 c-11 0 -29 4 -40 9 l-20 9 20 0 c11 0 29 -4
40 -9z m-50 -20 c-28 -12 -37 -12 -30 0 3 6 16 10 28 9 21 0 21 -1 2 -9z m120
-9 c17 -9 -39 -18 -57 -9 -10 5 -30 5 -45 2 -16 -4 -25 -4 -22 -1 3 4 23 10
45 15 37 8 55 7 79 -7z m195 -1 c0 -5 -5 -10 -11 -10 -5 0 -7 5 -4 10 3 6 8
10 11 10 2 0 4 -4 4 -10z m-373 -6 c-3 -3 -12 -4 -19 -1 -8 3 -5 6 6 6 11 1
17 -2 13 -5z m-200 -20 c-3 -3 -12 -4 -19 -1 -8 3 -5 6 6 6 11 1 17 -2 13 -5z
m-12 -18 c44 -19 46 -28 3 -14 -18 5 -44 10 -58 10 -23 -1 -23 0 -5 8 11 5 21
9 23 9 1 1 18 -6 37 -13z m-104 -3 c-19 -4 -21 -7 -10 -14 12 -7 12 -9 -1 -10
-10 0 -9 -3 4 -8 13 -5 0 -8 -35 -8 -46 0 -49 1 -21 7 18 4 36 11 40 15 4 4
-6 5 -23 1 -20 -5 -27 -4 -20 2 12 12 41 20 70 19 14 0 13 -1 -4 -4z m-2414
-17 c-5 -17 -41 -19 -76 -4 l-32 13 56 1 c38 1 55 -2 52 -10z m2493 0 c0 -8
-61 -12 -66 -4 -3 4 11 8 30 8 20 0 36 -2 36 -4z m5441 -79 l-10 -42 4 50 c3
35 2 44 -4 30 -8 -17 -10 -14 -10 15 -1 34 -1 34 15 12 12 -18 13 -30 5 -65z
m94 73 c3 -5 1 -10 -4 -10 -6 0 -11 5 -11 10 0 6 2 10 4 10 3 0 8 -4 11 -10z
m-8107 -6 c12 -4 22 -14 23 -23 0 -10 2 -12 6 -3 3 7 13 -3 24 -25 10 -20 17
-39 14 -41 -3 -3 -5 0 -5 7 0 7 -4 9 -10 6 -6 -4 -3 -16 6 -31 9 -13 14 -27
10 -31 -3 -3 -6 0 -6 8 0 12 -2 11 -11 -1 -9 -12 -10 -12 -5 3 8 25 -4 43 -16
26 -7 -10 -8 -8 -3 6 14 39 17 61 7 47 -7 -11 -11 -8 -16 12 -4 15 -11 24 -16
21 -6 -3 -10 0 -10 7 0 11 -2 10 -9 0 -7 -11 -9 -11 -14 2 -7 18 -3 19 31 10z
m112 -4 c-20 -13 -33 -13 -25 0 3 6 14 10 23 10 15 0 15 -2 2 -10z m85 1 c-11
-10 -32 -15 -55 -11 -8 1 -4 5 10 10 36 11 56 12 45 1z m7885 -41 c-14 -26
-17 -25 -22 4 -4 17 -1 23 9 19 9 -4 11 0 7 13 -5 18 -5 18 6 2 8 -13 8 -23 0
-38z m-7968 13 c-6 -2 -10 -8 -7 -12 2 -5 -7 -6 -20 -3 -36 6 -31 22 8 21 17
0 26 -3 19 -6z m148 -3 c11 -7 11 -10 2 -10 -7 0 -11 -4 -8 -8 3 -5 -1 -9 -9
-9 -8 0 -12 4 -9 9 3 4 -2 5 -10 2 -9 -3 -13 -10 -10 -15 3 -5 -2 -9 -10 -9
-8 0 -18 5 -21 10 -3 6 -2 10 4 10 6 0 8 7 5 15 -5 11 1 15 22 15 16 0 36 -5
44 -10z m55 1 c-3 -6 8 -8 27 -5 18 2 62 0 98 -5 l65 -10 -79 4 c-43 3 -86 0
-96 -5 -13 -7 -19 -6 -23 4 -3 8 -3 17 0 20 10 9 15 7 8 -3z m1825 -1 c-8 -5
-27 -10 -42 -10 -14 0 -28 -3 -30 -7 -1 -5 -21 -5 -43 -2 l-40 6 40 3 c22 1
54 6 70 10 17 4 37 8 45 9 13 1 13 0 0 -9z m85 -9 c-6 -5 -26 -11 -45 -13 -21
-2 -34 -8 -32 -15 2 -14 -20 -15 -58 -3 -25 8 -25 8 5 9 17 1 40 7 53 14 27
16 91 22 77 8z m5829 -26 c5 -22 4 -26 -4 -15 -5 8 -10 24 -10 34 0 26 6 18
14 -19z m-8047 -17 c-3 -7 -5 -2 -5 12 0 14 2 19 5 13 2 -7 2 -19 0 -25z
m1893 18 c50 -16 45 -17 -67 -20 -33 0 -59 3 -56 7 3 5 17 8 31 7 50 -4 68 2
32 10 -27 6 -30 8 -10 9 14 0 45 -6 70 -13z m76 6 c-5 -8 -66 -4 -66 4 0 2 16
4 36 4 19 0 33 -4 30 -8z m-1576 -17 c-7 -8 -20 -15 -29 -14 -12 0 -11 2 4 9
18 7 16 8 -10 12 -27 5 -26 5 9 7 33 1 37 -1 26 -14z m195 2 c11 -1 34 2 50 5
29 7 29 7 -4 -8 -26 -12 -44 -13 -79 -5 -29 6 -53 6 -63 0 -10 -5 -26 -9 -36
-9 -14 0 -15 2 -4 9 11 7 9 10 -10 13 -13 3 10 3 51 0 41 -2 84 -4 95 -5z
m168 6 c-7 -2 -19 -2 -25 0 -7 3 -2 5 12 5 14 0 19 -2 13 -5z m963 -8 c-16 -9
-34 -14 -40 -11 -6 2 0 8 14 14 39 16 59 14 26 -3z m348 0 c19 -14 19 -15 -6
-15 -15 0 -28 6 -31 13 -3 9 -9 9 -25 0 -20 -12 -39 -3 -25 11 12 11 68 6 87
-9z m553 -7 c-3 -8 -6 -5 -6 6 -1 11 2 17 5 13 3 -3 4 -12 1 -19z m-1907 2 c8
-5 11 -10 5 -10 -5 0 -17 5 -25 10 -8 5 -10 10 -5 10 6 0 17 -5 25 -10z m67
-6 c-3 -3 -12 -4 -19 -1 -8 3 -5 6 6 6 11 1 17 -2 13 -5z m101 -1 c-10 -2 -28
-2 -40 0 -13 2 -5 4 17 4 22 1 32 -1 23 -4z m7144 -23 c-2 -16 -6 -30 -8 -30
-2 0 -4 14 -4 30 0 17 4 30 8 30 5 0 7 -13 4 -30z m15 -22 c-3 -8 -6 -5 -6 6
-1 11 2 17 5 13 3 -3 4 -12 1 -19z m-32 -28 c3 -5 1 -10 -4 -10 -6 0 -11 5
-11 10 0 6 2 10 4 10 3 0 8 -4 11 -10z m-7948 -42 c-3 -7 -5 -2 -5 12 0 14 2
19 5 13 2 -7 2 -19 0 -25z m74 -31 c17 -61 -12 -137 -37 -95 -5 7 -2 9 7 6 12
-5 15 5 15 48 0 30 -4 54 -8 54 -4 0 -8 12 -8 28 1 24 2 25 11 9 6 -10 15 -32
20 -50z m7799 57 c0 -3 -7 -12 -15 -20 -16 -17 -18 -14 -9 10 6 15 24 23 24
10z m93 -9 c-3 -9 -8 -14 -10 -11 -3 3 -2 9 2 15 9 16 15 13 8 -4z m-23 -15
c0 -11 -2 -20 -4 -20 -2 0 -6 9 -9 20 -3 11 -1 20 4 20 5 0 9 -9 9 -20z
m-7926 -55 c5 -22 4 -26 -4 -15 -5 8 -10 24 -10 34 0 26 6 18 14 -19z m7885
-28 c-10 -36 -24 -52 -16 -17 4 14 7 36 7 50 0 18 3 21 9 11 5 -8 5 -27 0 -44z
m28 21 c-3 -7 -5 -2 -5 12 0 14 2 19 5 13 2 -7 2 -19 0 -25z m-74 7 c-3 -9 -8
-14 -10 -11 -3 3 -2 9 2 15 9 16 15 13 8 -4z m14 -42 c-3 -10 -5 -4 -5 12 0
17 2 24 5 18 2 -7 2 -21 0 -30z m-2 -33 c3 -5 1 -10 -4 -10 -6 0 -11 5 -11 10
0 6 2 10 4 10 3 0 8 -4 11 -10z m-74 -9 c-11 -7 -11 -15 -3 -39 8 -24 7 -32
-3 -36 -20 -7 -25 6 -18 47 4 25 11 37 22 37 13 0 13 -2 2 -9z m49 5 c0 -3 -4
-8 -10 -11 -5 -3 -10 -1 -10 4 0 6 5 11 10 11 6 0 10 -2 10 -4z m-7750 -61 c0
-17 -2 -17 -14 5 -7 14 -11 29 -8 34 6 12 22 -15 22 -39z m7725 35 c3 -5 1
-10 -4 -10 -6 0 -11 5 -11 10 0 6 2 10 4 10 3 0 8 -4 11 -10z m27 -28 c-6 -19
-6 -34 0 -47 8 -14 8 -16 -2 -10 -10 6 -12 4 -7 -8 4 -11 2 -14 -9 -10 -12 4
-14 0 -9 -23 3 -16 2 -22 -1 -14 -4 8 -12 18 -18 22 -6 4 -2 14 12 26 12 11
22 22 22 26 0 12 -16 6 -37 -14 -18 -16 -22 -17 -27 -4 -3 9 -1 12 4 9 6 -3
10 -1 10 4 0 6 7 11 15 11 8 0 15 8 15 18 0 14 2 15 10 2 8 -12 10 -10 10 11
0 14 3 29 7 32 12 13 15 -2 5 -31z m19 -19 c-9 -16 -10 -16 -11 -1 0 9 3 25 7
35 7 16 8 17 11 1 2 -10 -1 -25 -7 -35z m-7744 -80 c-3 -10 -5 -4 -5 12 0 17
2 24 5 18 2 -7 2 -21 0 -30z m7669 -21 c-9 -2 -16 -10 -16 -17 0 -8 6 -13 13
-11 6 1 9 1 5 -1 -5 -3 -8 -12 -9 -21 0 -9 -7 0 -14 21 -8 21 -12 44 -8 53 5
13 8 12 25 -3 17 -16 18 -18 4 -21z m-82 -55 c4 -22 11 -35 17 -31 7 4 7 10 0
17 -15 15 -14 54 1 63 8 5 9 2 5 -10 -4 -10 -2 -26 3 -36 6 -12 7 -33 1 -57
-5 -21 -9 -31 -10 -22 -1 24 -28 73 -32 60 -2 -6 -4 9 -4 33 0 49 9 41 19 -17z
m52 7 c-3 -7 -1 -16 4 -19 6 -4 10 -11 10 -18 0 -6 -7 -2 -15 9 -17 22 -20 58
-4 49 6 -4 8 -13 5 -21z m-7522 -50 c4 -9 2 -13 -5 -8 -7 4 -10 1 -7 -6 2 -7
12 -14 22 -16 9 -1 29 -15 43 -30 23 -25 25 -25 19 -6 -4 12 -3 22 1 22 5 0 9
-20 9 -44 -1 -25 -3 -42 -6 -39 -5 4 -6 9 -9 34 0 6 -8 9 -15 6 -10 -4 -13 -1
-9 9 5 14 -12 20 -20 7 -2 -5 -2 -2 -1 5 2 6 0 12 -4 12 -4 1 -18 10 -31 20
-19 17 -21 23 -11 35 15 19 16 19 24 -1z m116 -54 c0 -5 -4 -10 -10 -10 -5 0
-10 5 -10 10 0 6 5 10 10 10 6 0 10 -4 10 -10z m7274 -9 c-14 -9 -10 -41 4
-50 11 -7 10 -10 -3 -14 -9 -4 -13 -3 -10 3 3 6 2 10 -4 10 -5 0 -8 12 -6 28
2 15 4 31 4 35 1 5 6 5 12 1 6 -3 7 -9 3 -13z m-7111 -68 c-7 -2 -19 -2 -25 0
-7 3 -2 5 12 5 14 0 19 -2 13 -5z m7022 -3 c-8 -13 1 -13 28 1 21 10 21 10 2
-6 -11 -8 -25 -13 -32 -11 -7 3 -15 1 -18 -4 -4 -6 -18 -9 -33 -9 -27 1 -27 1
3 8 17 4 29 12 28 19 -2 7 4 12 13 12 8 0 12 -4 9 -10z m-6912 -7 c-13 -2 -35
-2 -50 0 -16 2 -5 4 22 4 28 0 40 -2 28 -4z m6875 1 c-8 -7 -88 -8 -95 0 -4 3
18 6 47 6 29 0 51 -3 48 -6z m-6878 -28 c0 -2 -16 -6 -35 -8 -19 -2 -35 0 -35
4 0 4 16 8 35 8 19 0 35 -2 35 -4z"/>
<path d="M13658 22658 c5 -5 16 -8 23 -6 8 3 3 7 -10 11 -17 4 -21 3 -13 -5z"/>
<path d="M19897 15582 c1 -8 3 -19 3 -25 0 -7 4 -6 10 3 12 19 13 33 1 26 -5
-4 -11 -3 -14 1 -2 5 -2 2 0 -5z"/>
<path d="M15158 15483 c7 -3 16 -2 19 1 4 3 -2 6 -13 5 -11 0 -14 -3 -6 -6z"/>
<path d="M14847 15379 c7 -7 15 -10 18 -7 3 3 -2 9 -12 12 -14 6 -15 5 -6 -5z"/>
<path d="M19781 15331 c-7 -12 -10 -25 -7 -29 3 -3 6 0 6 8 0 10 3 10 14 1 11
-10 16 -8 21 9 4 12 4 24 1 27 -3 4 -6 -2 -7 -13 0 -18 -1 -18 -8 1 -8 19 -8
19 -20 -4z"/>
<path d="M13568 15133 c7 -3 16 -2 19 1 4 3 -2 6 -13 5 -11 0 -14 -3 -6 -6z"/>
<path d="M11822 14940 c0 -14 2 -19 5 -12 2 6 2 18 0 25 -3 6 -5 1 -5 -13z"/>
<path d="M19531 14814 c0 -11 3 -14 6 -6 3 7 2 16 -1 19 -3 4 -6 -2 -5 -13z"/>
<path d="M19004 22981 c125 -250 264 -583 254 -611 -2 -5 -29 34 -62 87 -57
93 -166 226 -235 288 -190 169 -440 275 -649 275 l-86 0 151 -152 c170 -173
195 -201 280 -313 190 -252 298 -496 343 -776 12 -74 24 -150 28 -169 l8 -34
27 46 c65 112 170 196 304 245 l67 24 18 -23 c151 -192 198 -281 206 -391 3
-47 1 -69 -5 -62 -29 29 -144 213 -187 297 l-49 97 -22 -48 c-36 -76 -111
-127 -249 -170 -106 -33 -114 -31 -165 46 -25 36 -50 71 -55 77 -6 6 -29 37
-51 70 -39 57 -41 58 -78 53 -21 -3 -41 -8 -44 -10 -3 -3 8 -25 24 -49 124
-183 168 -332 168 -566 0 -83 1 -152 3 -152 2 0 24 10 50 21 26 12 89 39 140
59 l94 38 51 -56 c28 -32 53 -59 57 -62 9 -8 116 -153 127 -174 9 -17 13 -14
32 29 11 26 21 49 21 52 0 2 4 9 10 16 89 110 117 141 166 186 79 70 180 136
281 183 46 21 83 41 83 45 -1 5 -13 23 -29 40 l-27 33 -153 -57 c-126 -46
-154 -54 -162 -42 -5 8 -9 17 -9 20 0 4 64 69 143 145 90 88 177 162 237 202
246 164 549 269 954 334 111 17 134 24 125 35 -6 7 -16 13 -21 13 -5 0 -19 9
-31 21 -38 35 -183 99 -284 125 -246 63 -504 37 -772 -77 -51 -22 -95 -39 -97
-37 -12 13 86 81 306 211 154 92 189 114 155 98 -17 -8 -21 -6 -22 12 -1 12 1
17 5 11 4 -7 16 -11 27 -10 18 2 95 33 95 39 0 1 -14 2 -31 3 -18 1 -26 -2
-18 -7 21 -13 -102 -2 -161 14 -30 8 -73 24 -95 35 -44 23 -154 62 -174 62 -7
0 -19 6 -26 14 -17 17 -121 51 -183 60 -24 4 -50 13 -58 20 -15 16 -133 56
-162 56 -11 0 -37 12 -58 26 -21 15 -71 35 -110 44 -39 10 -84 26 -99 36 -27
18 -90 36 -178 50 -25 5 -36 11 -33 19 3 9 -3 12 -19 10 -13 -1 -26 4 -29 12
-3 8 -10 12 -15 9 -16 -11 -40 5 -34 21 5 12 3 14 -7 8 -9 -6 -12 -4 -8 7 4 8
0 15 -7 15 -10 0 -7 -13 9 -46z m53 -31 c1 -11 -2 -22 -8 -25 -5 -4 -6 2 -2
11 5 13 3 15 -8 9 -12 -8 -12 -6 0 8 17 21 16 21 18 -3z m40 -22 c-3 -8 -6 -5
-6 6 -1 11 2 17 5 13 3 -3 4 -12 1 -19z m1330 -434 c-3 -3 -12 -4 -19 -1 -8 3
-5 6 6 6 11 1 17 -2 13 -5z m-77 -42 c-8 -3 -20 -12 -26 -20 -9 -13 -11 -12
-11 2 0 9 4 16 9 16 5 0 7 4 4 9 -4 5 4 7 16 3 16 -4 18 -7 8 -10z"/>
<path d="M15100 22654 l-25 -14 29 6 c24 6 28 4 23 -9 -4 -10 -2 -14 7 -11 18
7 81 -22 67 -30 -7 -4 -19 -2 -28 6 -14 11 -16 11 -11 -3 4 -9 1 -22 -5 -29
-7 -7 3 -5 21 5 32 15 35 15 46 -1 9 -12 15 -14 20 -6 4 7 15 12 24 12 15 0
15 -2 2 -11 -12 -8 -10 -9 9 -4 16 5 21 4 17 -4 -4 -6 -2 -11 3 -11 6 0 11 5
11 10 0 14 -60 39 -77 33 -9 -4 -11 0 -6 13 4 12 3 15 -5 10 -7 -4 -12 -3 -12
3 0 6 -7 7 -17 4 -11 -4 -14 -3 -9 5 4 7 -4 14 -21 18 -15 4 -30 11 -33 15 -3
4 -16 1 -30 -7z"/>
<path d="M14760 22650 c0 -5 9 -10 21 -10 11 0 17 5 14 10 -3 6 -13 10 -21 10
-8 0 -14 -4 -14 -10z"/>
<path d="M13563 22590 c-1 -11 2 -20 7 -20 10 0 20 26 13 34 -12 11 -19 6 -20
-14z"/>
<path d="M15125 22580 c-3 -6 1 -7 9 -4 18 7 21 14 7 14 -6 0 -13 -4 -16 -10z"/>
<path d="M14660 22570 c0 -5 5 -10 10 -10 6 0 10 5 10 10 0 6 -4 10 -10 10 -5
0 -10 -4 -10 -10z"/>
<path d="M15185 22560 c-3 -5 -2 -10 4 -10 5 0 13 5 16 10 3 6 2 10 -4 10 -5
0 -13 -4 -16 -10z"/>
<path d="M14600 22551 c0 -5 -10 -12 -22 -14 -21 -4 -20 -4 3 -6 15 0 32 6 39
14 10 12 10 15 -4 15 -9 0 -16 -4 -16 -9z"/>
<path d="M15322 22550 c2 -8 -2 -14 -9 -13 -20 4 -7 -30 18 -46 13 -8 21 -11
17 -6 -9 9 9 35 24 35 6 0 5 -7 -2 -15 -14 -17 -14 -17 20 -19 35 -2 53 -15
41 -30 -7 -8 -4 -15 10 -24 11 -7 19 -8 19 -2 0 5 -4 10 -10 10 -5 0 -10 5
-10 10 0 7 8 7 23 -1 12 -6 4 5 -17 24 -23 20 -46 33 -55 29 -9 -3 -12 -1 -7
6 3 6 -3 16 -14 22 -11 6 -20 7 -20 3 0 -4 -7 2 -15 13 -11 13 -14 14 -13 4z
m24 -38 c-8 -8 -19 -11 -25 -7 -16 9 -4 24 19 22 17 -1 18 -3 6 -15z"/>
<path d="M13404 22535 c-10 -8 -14 -15 -8 -15 6 0 17 7 24 15 16 19 9 19 -16
0z"/>
<path d="M15210 22540 c-9 -6 -10 -10 -3 -10 6 0 15 5 18 10 8 12 4 12 -15 0z"/>
<path d="M13402 22511 c-11 -7 -11 -9 1 -14 9 -3 18 1 21 9 6 16 -2 18 -22 5z"/>
<path d="M14491 22504 c-7 -8 -11 -18 -7 -21 9 -10 36 6 36 22 0 19 -11 19
-29 -1z"/>
<path d="M14720 22490 c0 -5 5 -10 10 -10 6 0 10 5 10 10 0 6 -4 10 -10 10 -5
0 -10 -4 -10 -10z"/>
<path d="M15048 22473 c7 -3 16 -2 19 1 4 3 -2 6 -13 5 -11 0 -14 -3 -6 -6z"/>
<path d="M15482 22425 c-11 -12 -10 -15 3 -15 8 0 15 7 15 15 0 18 -2 18 -18
0z"/>
<path d="M13237 22413 c-10 -9 -9 -23 2 -23 5 0 11 7 15 15 5 15 -5 20 -17 8z"/>
<path d="M14340 22410 c0 -5 5 -10 10 -10 6 0 10 5 10 10 0 6 -4 10 -10 10 -5
0 -10 -4 -10 -10z"/>
<path d="M15420 22416 c0 -2 7 -7 16 -10 8 -3 12 -2 9 4 -6 10 -25 14 -25 6z"/>
<path d="M15526 22396 c3 -7 17 -19 32 -25 l27 -12 -29 25 c-33 30 -37 31 -30
12z"/>
<path d="M14280 22391 c0 -5 -10 -12 -22 -14 -21 -4 -20 -4 3 -6 15 0 32 6 39
14 10 12 10 15 -4 15 -9 0 -16 -4 -16 -9z"/>
<path d="M14874 22384 c17 -16 36 -11 36 9 0 8 -3 8 -9 -2 -6 -9 -11 -10 -15
-2 -4 6 -12 11 -17 11 -6 0 -3 -7 5 -16z"/>
<path d="M14171 22344 c-7 -8 -11 -18 -7 -21 9 -10 36 6 36 22 0 19 -11 19
-29 -1z"/>
<path d="M15590 22350 c0 -19 5 -24 23 -25 16 -2 16 0 0 17 -18 21 -23 22 -23
8z"/>
<path d="M15550 22339 c0 -5 5 -7 10 -4 6 3 10 8 10 11 0 2 -4 4 -10 4 -5 0
-10 -5 -10 -11z"/>
<path d="M14400 22330 c0 -5 5 -10 10 -10 6 0 10 5 10 10 0 6 -4 10 -10 10 -5
0 -10 -4 -10 -10z"/>
<path d="M15654 22271 c0 -17 3 -28 7 -25 5 2 5 12 2 22 -6 15 -5 15 10 3 9
-7 14 -18 10 -24 -4 -6 -1 -7 6 -2 9 5 7 13 -10 31 -12 13 -23 24 -24 24 -1 0
-1 -13 -1 -29z"/>
<path d="M14020 22250 c0 -5 5 -10 10 -10 6 0 10 5 10 10 0 6 -4 10 -10 10 -5
0 -10 -4 -10 -10z"/>
<path d="M13960 22231 c0 -5 -10 -12 -22 -14 -21 -4 -20 -4 3 -6 15 0 32 6 39
14 10 12 10 15 -4 15 -9 0 -16 -4 -16 -9z"/>
<path d="M14554 22224 c17 -16 36 -11 36 9 0 8 -3 8 -9 -2 -6 -9 -11 -10 -15
-2 -4 6 -12 11 -17 11 -6 0 -3 -7 5 -16z"/>
<path d="M13853 22185 c-18 -20 -16 -25 7 -25 13 0 20 7 20 20 0 23 -10 25
-27 5z"/>
<path d="M14080 22170 c0 -5 5 -10 10 -10 6 0 10 5 10 10 0 6 -4 10 -10 10 -5
0 -10 -4 -10 -10z"/>
<path d="M13700 22090 c0 -5 5 -10 10 -10 6 0 10 5 10 10 0 6 -4 10 -10 10 -5
0 -10 -4 -10 -10z"/>
<path d="M13640 22071 c0 -5 -10 -12 -22 -14 -21 -4 -20 -4 3 -6 15 0 32 6 39
14 10 12 10 15 -4 15 -9 0 -16 -4 -16 -9z"/>
<path d="M14234 22064 c17 -16 36 -11 36 9 0 8 -3 8 -9 -2 -6 -9 -11 -10 -15
-2 -4 6 -12 11 -17 11 -6 0 -3 -7 5 -16z"/>
<path d="M15860 22065 c0 -8 4 -15 10 -15 5 0 7 7 4 15 -4 8 -8 15 -10 15 -2
0 -4 -7 -4 -15z"/>
<path d="M13533 22025 c-18 -20 -16 -25 7 -25 13 0 20 7 20 20 0 23 -10 25
-27 5z"/>
<path d="M13760 22010 c0 -5 5 -10 10 -10 6 0 10 5 10 10 0 6 -4 10 -10 10 -5
0 -10 -4 -10 -10z"/>
<path d="M17221 22005 c-256 -56 -498 -314 -576 -616 -8 -31 -15 -60 -15 -64
0 -3 28 29 61 72 83 105 268 287 353 347 61 44 202 113 211 104 2 -2 -44 -46
-102 -98 -179 -160 -395 -412 -460 -537 -15 -28 -24 -55 -20 -59 13 -13 142
-33 217 -33 148 -1 274 47 379 145 84 77 119 128 204 295 40 79 112 208 160
287 53 88 82 144 74 147 -86 27 -379 33 -486 10z"/>
<path d="M13380 21930 c0 -5 5 -10 10 -10 6 0 10 5 10 10 0 6 -4 10 -10 10 -5
0 -10 -4 -10 -10z"/>
<path d="M13320 21911 c0 -5 -10 -12 -22 -14 -21 -4 -20 -4 3 -6 15 0 32 6 39
14 10 12 10 15 -4 15 -9 0 -16 -4 -16 -9z"/>
<path d="M13914 21904 c17 -16 36 -11 36 9 0 8 -3 8 -9 -2 -6 -9 -11 -10 -15
-2 -4 6 -12 11 -17 11 -6 0 -3 -7 5 -16z"/>
<path d="M13213 21865 c-18 -20 -16 -25 7 -25 13 0 20 7 20 20 0 23 -10 25
-27 5z"/>
<path d="M13440 21850 c0 -5 5 -10 10 -10 6 0 10 5 10 10 0 6 -4 10 -10 10 -5
0 -10 -4 -10 -10z"/>
<path d="M15748 21850 c-37 -5 -71 -11 -77 -14 -5 -4 15 -46 46 -96 31 -51 51
-94 47 -101 -4 -7 -3 -9 3 -6 9 6 22 -11 25 -33 1 -3 11 -21 22 -40 12 -19 31
-55 41 -80 115 -266 298 -385 538 -350 45 6 85 14 89 16 10 7 -35 96 -80 159
-20 28 -86 108 -146 179 -61 71 -110 133 -108 138 1 4 -4 7 -10 6 -7 -2 -12 3
-10 10 1 6 -2 11 -6 10 -4 -2 -23 10 -42 26 -20 17 -26 26 -15 22 11 -5 28
-11 37 -13 10 -3 15 -9 12 -14 -3 -5 1 -6 9 -3 33 12 243 -181 350 -324 52
-71 57 -66 26 34 -68 220 -245 410 -423 455 -25 6 -46 14 -46 18 0 9 -206 10
-282 1z"/>
<path d="M18530 21776 c-109 -48 -135 -62 -242 -132 -104 -69 -269 -220 -336
-307 l-42 -54 20 -41 c37 -76 45 -224 20 -360 -6 -36 -6 -60 0 -73 8 -15 7
-17 -5 -13 -8 4 -15 2 -15 -4 0 -12 37 -22 56 -15 8 3 11 10 7 16 -3 5 -1 7 4
4 6 -4 37 2 69 12 33 11 74 22 92 26 18 4 30 10 27 14 -2 5 8 6 23 4 16 -3 22
-1 15 4 -6 5 12 9 45 10 41 2 61 -2 75 -15 19 -16 20 -16 14 1 -4 11 -3 16 4
12 5 -4 7 -15 4 -26 -4 -10 -2 -19 4 -19 5 0 18 -16 27 -35 9 -19 21 -32 27
-28 6 3 7 1 3 -5 -4 -6 9 -33 27 -59 19 -26 37 -57 41 -67 9 -25 27 -8 29 27
1 14 5 23 8 21 9 -5 20 26 13 37 -3 5 0 8 8 7 7 -2 12 3 11 10 -2 6 2 12 9 12
6 0 9 3 6 6 -3 3 13 26 36 52 102 115 158 169 205 197 l51 30 0 68 c0 130 -45
285 -104 352 -54 62 -124 222 -141 323 -4 23 -10 42 -13 42 -4 0 -41 -15 -82
-34z"/>
<path d="M13060 21770 c0 -5 5 -10 10 -10 6 0 10 5 10 10 0 6 -4 10 -10 10 -5
0 -10 -4 -10 -10z"/>
<path d="M13000 21751 c0 -5 -8 -12 -17 -14 -14 -4 -14 -5 3 -6 12 0 27 6 34
14 10 12 10 15 -4 15 -9 0 -16 -4 -16 -9z"/>
<path d="M13760 21749 c0 -5 5 -7 10 -4 6 3 10 8 10 11 0 2 -4 4 -10 4 -5 0
-10 -5 -10 -11z"/>
<path d="M13120 21690 c0 -5 5 -10 10 -10 6 0 10 5 10 10 0 6 -4 10 -10 10 -5
0 -10 -4 -10 -10z"/>
<path d="M12847 21673 c-4 -3 -7 -11 -7 -17 0 -6 5 -5 12 2 6 6 9 14 7 17 -3
3 -9 2 -12 -2z"/>
<path d="M13440 21589 c0 -5 5 -7 10 -4 6 3 10 8 10 11 0 2 -4 4 -10 4 -5 0
-10 -5 -10 -11z"/>
<path d="M12804 21546 c-8 -22 3 -33 18 -18 9 9 9 15 0 24 -9 9 -13 7 -18 -6z"/>
<path d="M13120 21429 c0 -5 5 -7 10 -4 6 3 10 8 10 11 0 2 -4 4 -10 4 -5 0
-10 -5 -10 -11z"/>
<path d="M5520 21370 c8 -5 20 -10 25 -10 6 0 3 5 -5 10 -8 5 -19 10 -25 10
-5 0 -3 -5 5 -10z"/>
<path d="M5170 21335 c-19 -7 -28 -13 -20 -13 8 0 31 6 50 13 19 7 28 13 20
13 -8 0 -31 -6 -50 -13z"/>
<path d="M5620 21320 c-13 -9 -13 -10 0 -10 13 0 13 -1 0 -11 -13 -9 -13 -10
0 -6 8 2 14 10 13 16 -4 17 8 13 34 -11 17 -16 26 -19 34 -11 8 8 6 11 -7 10
-11 -1 -18 4 -16 11 1 8 -2 11 -7 8 -5 -4 -12 -2 -16 4 -8 12 -16 12 -35 0z"/>
<path d="M5115 21300 c3 -5 8 -10 11 -10 2 0 4 5 4 10 0 6 -5 10 -11 10 -5 0
-7 -4 -4 -10z"/>
<path d="M20152 21288 c-16 -13 -59 -45 -94 -72 -75 -58 -132 -87 -221 -116
-84 -27 -179 -99 -260 -197 l-60 -73 21 -48 c45 -104 67 -276 52 -413 -5 -51
-7 -95 -5 -97 2 -3 15 2 27 10 28 18 241 98 261 98 13 0 104 -96 137 -145 8
-12 23 -29 32 -38 9 -9 31 -42 48 -72 17 -30 35 -57 39 -59 11 -7 82 154 74
167 -3 5 -1 7 4 4 6 -4 27 20 47 53 47 75 126 158 166 171 28 10 30 14 30 62
0 115 -37 297 -92 452 -39 110 -130 280 -168 313 -11 10 -11 12 -1 6 9 -5 12
-3 7 4 -9 15 -8 16 -44 -10z"/>
<path d="M5052 21257 c-17 -18 -19 -24 -8 -24 8 0 13 4 10 9 -3 4 -1 8 4 8 6
0 12 7 16 15 8 21 3 19 -22 -8z"/>
<path d="M5735 21247 c1 -17 5 -32 10 -32 13 0 13 44 0 55 -8 7 -11 1 -10 -23z"/>
<path d="M12800 21269 c0 -5 5 -7 10 -4 6 3 10 8 10 11 0 2 -4 4 -10 4 -5 0
-10 -5 -10 -11z"/>
<path d="M5770 21216 c0 -2 7 -7 16 -10 8 -3 12 -2 9 4 -6 10 -25 14 -25 6z"/>
<path d="M5820 21173 c0 -7 4 -13 10 -13 5 0 16 -12 24 -27 8 -16 15 -23 16
-16 0 7 -11 25 -25 40 -13 15 -25 22 -25 16z"/>
<path d="M4981 21142 c-7 -14 -6 -19 4 -19 7 0 11 7 7 15 -4 11 -1 13 8 7 9
-5 11 -4 6 3 -10 16 -14 15 -25 -6z"/>
<path d="M4946 21133 c-6 -14 -5 -15 5 -6 7 7 10 15 7 18 -3 3 -9 -2 -12 -12z"/>
<path d="M5830 21121 c0 -6 4 -13 10 -16 6 -3 7 1 4 9 -7 18 -14 21 -14 7z"/>
<path d="M17781 21045 c-17 -41 -31 -79 -31 -84 0 -6 -9 -26 -21 -45 -19 -32
-20 -40 -9 -92 9 -41 9 -59 1 -67 -19 -19 -12 -37 15 -37 20 0 24 4 19 19 -3
11 -1 22 5 26 7 4 9 18 6 30 -3 13 -2 26 3 30 6 3 13 -11 16 -32 4 -21 9 -46
11 -55 4 -12 -5 -21 -29 -32 -36 -15 -63 -41 -30 -29 10 3 27 12 38 20 24 16
39 17 29 1 -4 -6 -3 -8 4 -5 5 4 8 17 4 29 -4 17 -2 20 11 15 8 -3 18 0 20 7
4 10 -1 12 -14 9 -12 -4 -19 0 -19 9 0 11 10 14 39 11 l38 -4 1 56 c0 30 -4
55 -9 55 -5 0 -7 12 -3 28 4 22 3 24 -6 12 -9 -12 -10 -11 -5 6 6 24 -33 194
-45 194 -4 0 -21 -34 -39 -75z m-32 -235 c11 -24 11 -24 -3 -6 -9 11 -16 24
-16 30 0 12 5 7 19 -24z m131 -21 c0 -5 -4 -9 -10 -9 -5 0 -10 7 -10 16 0 8 5
12 10 9 6 -3 10 -10 10 -16z"/>
<path d="M4907 21065 c-4 -8 -3 -16 1 -19 4 -3 9 4 9 15 2 23 -3 25 -10 4z"/>
<path d="M6845 21070 c27 -12 43 -12 25 0 -8 5 -22 9 -30 9 -10 0 -8 -3 5 -9z"/>
<path d="M6773 21063 c9 -2 23 -2 30 0 6 3 -1 5 -18 5 -16 0 -22 -2 -12 -5z"/>
<path d="M6928 21063 c6 -2 18 -2 25 0 6 3 1 5 -13 5 -14 0 -19 -2 -12 -5z"/>
<path d="M7293 21013 c9 -2 25 -2 35 0 9 3 1 5 -18 5 -19 0 -27 -2 -17 -5z"/>
<path d="M19176 20989 c-133 -45 -337 -151 -398 -207 -14 -13 -30 -24 -35 -24
-4 0 -7 -4 -5 -10 1 -5 -2 -7 -8 -3 -5 3 -13 -1 -16 -9 -3 -9 -10 -14 -14 -11
-4 2 -15 -4 -25 -15 -17 -19 -17 -21 1 -42 l19 -23 -22 19 c-21 18 -24 18 -48
2 -14 -9 -25 -19 -25 -22 0 -4 8 -1 18 7 9 7 -8 -11 -38 -40 -30 -29 -50 -50
-44 -47 6 3 11 -1 11 -9 0 -10 -5 -11 -18 -4 -15 8 -17 6 -12 -7 4 -10 2 -15
-3 -11 -5 3 -10 -3 -10 -13 0 -10 4 -16 8 -14 4 3 8 2 9 -3 3 -34 28 -91 29
-65 0 21 18 13 23 -10 2 -13 3 0 1 27 -3 38 -1 44 5 25 5 -14 10 -38 11 -55 1
-18 4 -23 7 -12 8 29 23 19 24 -15 0 -28 2 -30 9 -13 8 20 9 20 9 -1 1 -28 11
-36 28 -23 10 9 18 7 32 -10 17 -20 19 -20 26 -4 5 16 10 13 36 -17 23 -29 30
-32 38 -20 9 12 13 11 34 -8 13 -12 36 -22 53 -22 18 0 35 -8 44 -20 9 -12 26
-20 45 -20 16 0 39 -7 49 -15 11 -8 28 -13 37 -10 11 4 24 -4 39 -25 12 -16
30 -30 41 -30 11 0 31 -7 44 -16 23 -15 25 -15 25 0 0 21 10 20 26 -1 10 -14
17 -16 31 -7 12 7 27 8 43 2 14 -5 33 -7 42 -4 10 2 16 0 12 -5 -3 -5 -14 -9
-25 -9 -11 0 -18 -4 -14 -9 3 -5 20 -9 38 -9 17 1 26 3 20 5 -10 4 -9 8 1 19
17 16 30 19 21 4 -3 -5 -2 -10 4 -10 15 0 23 18 11 25 -5 3 -10 11 -10 16 0 6
7 3 16 -5 14 -15 18 -14 47 6 18 12 34 26 35 30 2 5 7 6 12 3 15 -9 4 218 -15
290 -20 81 -38 120 -70 155 -53 57 -126 227 -150 348 -4 17 -10 32 -13 32 -4
0 -47 -14 -96 -31z m-572 -385 c3 -8 2 -12 -4 -9 -6 3 -10 10 -10 16 0 14 7
11 14 -7z m-55 -101 c6 -12 7 -24 3 -27 -5 -3 -9 0 -9 7 0 7 -4 21 -8 32 -10
25 -2 18 14 -12z m621 -323 c11 -7 7 -10 -17 -10 -18 0 -33 5 -33 10 0 13 30
13 50 0z"/>
<path d="M7260 20980 c-9 -6 -10 -10 -3 -10 6 0 15 5 18 10 8 12 4 12 -15 0z"/>
<path d="M12742 20860 c0 -14 2 -19 5 -12 2 6 2 18 0 25 -3 6 -5 1 -5 -13z"/>
<path d="M4862 20850 c0 -14 2 -19 5 -12 2 6 2 18 0 25 -3 6 -5 1 -5 -13z"/>
<path d="M17687 20836 c-10 -26 -8 -33 4 -16 7 11 8 5 3 -22 -4 -23 -2 -38 4
-38 16 0 20 35 8 66 -10 24 -13 26 -19 10z"/>
<path d="M17672 20780 c0 -14 2 -19 5 -12 2 6 2 18 0 25 -3 6 -5 1 -5 -13z"/>
<path d="M4891 20774 c0 -11 3 -14 6 -6 3 7 2 16 -1 19 -3 4 -6 -2 -5 -13z"/>
<path d="M4882 20730 c0 -14 2 -19 5 -12 2 6 2 18 0 25 -3 6 -5 1 -5 -13z"/>
<path d="M8141 20746 c2 -2 15 -9 29 -15 24 -11 24 -11 6 3 -16 13 -49 24 -35
12z"/>
<path d="M17868 20743 c7 -3 16 -2 19 1 4 3 -2 6 -13 5 -11 0 -14 -3 -6 -6z"/>
<path d="M17670 20732 c0 -6 -6 -9 -14 -6 -8 3 -15 -3 -18 -14 -4 -15 -1 -18
14 -14 21 5 35 28 24 39 -3 4 -6 1 -6 -5z"/>
<path d="M18155 20729 c-5 -6 -28 -26 -50 -45 -22 -19 -31 -31 -21 -27 17 6
19 2 13 -37 -4 -30 -2 -39 5 -32 8 8 15 6 25 -4 19 -18 36 -8 28 17 -8 24 13
26 22 2 16 -43 53 -57 53 -22 0 18 2 20 15 9 9 -7 12 -16 8 -19 -11 -8 -11
-51 0 -44 5 3 14 -1 19 -8 6 -10 7 -7 3 9 -6 21 -5 22 14 10 24 -14 26 -24 10
-34 -8 -4 -7 -9 2 -15 19 -12 29 -11 29 2 0 5 -4 7 -10 4 -5 -3 -7 0 -4 9 3 8
0 25 -7 38 -7 13 -12 27 -11 31 3 11 -39 70 -45 63 -2 -2 1 -15 7 -28 10 -19
10 -21 -1 -10 -7 7 -14 23 -14 36 -2 31 -33 79 -46 70 -6 -3 -9 2 -7 12 3 21
-22 29 -37 13z m-12 -60 c3 -12 3 -18 0 -15 -4 3 -13 0 -21 -7 -11 -8 -14 -8
-9 0 4 6 1 14 -5 16 -10 4 -9 8 2 16 22 15 27 14 33 -10z m81 -27 c-8 -27 -20
-29 -27 -3 -3 15 -1 18 11 14 12 -5 14 -2 8 13 -5 13 -4 16 3 9 6 -6 8 -20 5
-33z m64 -64 c-2 -6 -10 -14 -16 -16 -7 -2 -10 2 -6 12 7 18 28 22 22 4z"/>
<path d="M12752 20710 c0 -14 2 -19 5 -12 2 6 2 18 0 25 -3 6 -5 1 -5 -13z"/>
<path d="M4895 20691 c-3 -5 -1 -12 5 -16 5 -3 10 1 10 9 0 18 -6 21 -15 7z"/>
<path d="M8216 20688 c3 -4 -1 -8 -8 -8 -9 0 -9 -3 2 -10 20 -13 39 -12 20 1
-12 8 -11 9 5 6 11 -2 19 -8 18 -14 -1 -6 9 -8 25 -4 25 5 25 6 4 9 -13 2 -19
8 -16 14 4 7 2 8 -4 4 -7 -4 -12 -3 -12 1 0 5 -9 9 -19 9 -11 0 -17 -4 -15 -8z"/>
<path d="M17770 20679 c0 -5 5 -7 10 -4 6 3 10 8 10 11 0 2 -4 4 -10 4 -5 0
-10 -5 -10 -11z"/>
<path d="M4900 20654 c0 -5 7 -18 15 -28 8 -11 15 -16 15 -10 0 5 -7 18 -15
28 -8 11 -15 16 -15 10z"/>
<path d="M8322 20644 c10 -10 20 -16 22 -13 3 3 -5 11 -17 18 -21 13 -21 12
-5 -5z"/>
<path d="M17679 20623 c-13 -16 -12 -17 4 -4 9 7 17 15 17 17 0 8 -8 3 -21
-13z"/>
<path d="M18058 20627 c-7 -8 -20 -12 -28 -10 -13 4 -13 3 -1 -5 8 -6 20 -8
28 -5 23 9 14 -13 -12 -27 -14 -7 -23 -15 -20 -18 2 -3 15 2 29 11 16 11 23
25 22 42 -1 29 -1 29 -18 12z"/>
<path d="M6378 20623 c7 -3 16 -2 19 1 4 3 -2 6 -13 5 -11 0 -14 -3 -6 -6z"/>
<path d="M6608 20623 c6 -2 18 -2 25 0 6 3 1 5 -13 5 -14 0 -19 -2 -12 -5z"/>
<path d="M6138 20613 c6 -2 18 -2 25 0 6 3 1 5 -13 5 -14 0 -19 -2 -12 -5z"/>
<path d="M6328 20613 c7 -3 16 -2 19 1 4 3 -2 6 -13 5 -11 0 -14 -3 -6 -6z"/>
<path d="M6748 20613 c6 -2 18 -2 25 0 6 3 1 5 -13 5 -14 0 -19 -2 -12 -5z"/>
<path d="M8367 20608 c6 -7 9 -21 8 -30 -2 -12 2 -15 13 -10 11 4 12 7 4 10
-10 3 -10 7 0 20 10 12 10 14 1 8 -7 -4 -13 -2 -13 3 0 6 -5 11 -11 11 -8 0
-8 -4 -2 -12z"/>
<path d="M6603 20603 c9 -2 23 -2 30 0 6 3 -1 5 -18 5 -16 0 -22 -2 -12 -5z"/>
<path d="M6833 20603 c9 -2 25 -2 35 0 9 3 1 5 -18 5 -19 0 -27 -2 -17 -5z"/>
<path d="M6758 20593 c7 -3 16 -2 19 1 4 3 -2 6 -13 5 -11 0 -14 -3 -6 -6z"/>
<path d="M17965 20585 c-19 -15 -19 -16 4 -5 19 10 26 9 33 -1 8 -12 9 -11 6
0 -6 21 -21 23 -43 6z"/>
<path d="M5848 20579 c-20 -11 -24 -29 -6 -29 6 0 8 3 5 7 -4 3 1 12 11 19 20
16 14 18 -10 3z"/>
<path d="M4978 20560 c18 -21 15 -35 -5 -19 -14 12 -14 10 1 -13 10 -16 23
-28 30 -28 7 0 6 3 -2 8 -7 5 -10 15 -7 24 3 8 -2 21 -12 28 -15 12 -16 12 -5
0z"/>
<path d="M8465 20540 c-4 -6 -2 -17 5 -23 10 -9 11 -9 6 1 -4 6 -3 12 2 12 11
0 44 -35 37 -41 -2 -3 5 -5 15 -5 11 0 16 3 12 6 -4 3 -21 18 -38 33 -22 20
-34 25 -39 17z"/>
<path d="M7238 20533 c7 -3 16 -2 19 1 4 3 -2 6 -13 5 -11 0 -14 -3 -6 -6z"/>
<path d="M7350 20520 c-9 -6 -10 -10 -3 -10 6 0 15 5 18 10 8 12 4 12 -15 0z"/>
<path d="M18333 20494 c2 -31 23 -61 35 -49 4 4 1 10 -5 12 -7 3 -13 12 -13
21 0 10 -4 23 -9 31 -6 10 -9 5 -8 -15z"/>
<path d="M5747 20454 c-10 -14 -22 -22 -26 -19 -5 2 -15 -3 -22 -12 -12 -15
-12 -16 1 -8 8 6 17 10 20 10 13 0 60 44 53 48 -4 3 -16 -6 -26 -19z"/>
<path d="M5700 20460 c-9 -6 -10 -10 -3 -10 6 0 15 5 18 10 8 12 4 12 -15 0z"/>
<path d="M8575 20450 c10 -11 20 -20 23 -20 3 0 -3 9 -13 20 -10 11 -20 20
-23 20 -3 0 3 -9 13 -20z"/>
<path d="M7624 20446 c11 -9 24 -16 30 -16 12 0 7 5 -24 19 -24 11 -24 11 -6
-3z"/>
<path d="M7680 20436 c0 -3 9 -10 20 -16 11 -6 20 -8 20 -6 0 3 -9 10 -20 16
-11 6 -20 8 -20 6z"/>
<path d="M8599 20413 c-11 -15 -11 -16 1 -6 11 11 20 8 44 -15 l31 -27 -29 33
c-17 17 -31 32 -32 32 -1 0 -8 -8 -15 -17z"/>
<path d="M7790 20380 c8 -5 20 -10 25 -10 6 0 3 5 -5 10 -8 5 -19 10 -25 10
-5 0 -3 -5 5 -10z"/>
<path d="M18590 20383 c0 -19 11 -43 21 -43 13 0 11 14 -6 36 -8 10 -15 14
-15 7z"/>
<path d="M5161 20376 c2 -2 15 -9 29 -15 24 -11 24 -11 6 3 -16 13 -49 24 -35
12z"/>
<path d="M5600 20376 c0 -2 7 -6 15 -10 8 -3 15 -1 15 4 0 6 -7 10 -15 10 -8
0 -15 -2 -15 -4z"/>
<path d="M18565 20369 c-4 -6 -5 -12 -2 -15 2 -3 7 2 10 11 7 17 1 20 -8 4z"/>
<path d="M18577 20338 c-4 -12 -4 -24 -2 -27 3 -2 5 1 5 8 0 7 4 10 9 7 5 -4
7 3 4 14 -7 25 -9 25 -16 -2z"/>
<path d="M8696 20337 c3 -10 9 -15 12 -12 3 3 0 11 -7 18 -10 9 -11 8 -5 -6z"/>
<path d="M8010 20309 c-12 -8 -10 -9 7 -4 17 5 21 2 18 -12 -1 -10 -9 -16 -16
-15 -8 2 -10 0 -6 -4 4 -5 20 -9 35 -11 17 -1 21 0 12 5 -9 4 -15 16 -15 26 0
23 -15 30 -35 15z"/>
<path d="M8736 20298 c10 -14 21 -24 23 -22 3 3 -6 15 -18 27 l-24 22 19 -27z"/>
<path d="M20344 20228 c-99 -91 -166 -168 -174 -199 -7 -26 12 -74 24 -62 4 4
4 -1 0 -11 -6 -15 -4 -17 6 -11 9 5 11 4 6 -4 -4 -6 -2 -28 4 -49 22 -72 20
-68 30 -52 7 10 10 11 10 3 0 -7 4 -13 9 -13 4 0 7 12 5 28 -3 25 -3 26 4 3 9
-29 32 -40 32 -16 0 15 1 15 16 1 22 -23 37 -9 30 28 -4 18 -3 26 2 18 11 -17
47 162 36 179 -4 7 -3 9 3 6 5 -4 17 34 27 91 10 53 20 105 23 115 8 31 -13
18 -93 -55z"/>
<path d="M8816 20208 c10 -14 21 -24 23 -22 3 3 -6 15 -18 27 l-24 22 19 -27z"/>
<path d="M8100 20216 c0 -3 14 -12 30 -21 17 -9 30 -13 30 -11 0 3 -13 12 -30
21 -16 9 -30 13 -30 11z"/>
<path d="M19780 20179 c-25 -22 -44 -43 -43 -48 1 -5 -5 -8 -15 -7 -9 0 -16
-5 -14 -12 1 -7 -5 -12 -15 -10 -10 2 -17 -2 -15 -9 1 -7 -1 -12 -5 -12 -22 4
-33 -2 -27 -13 5 -8 2 -9 -9 -5 -10 3 -17 2 -17 -2 0 -11 31 -25 49 -22 13 2
13 0 2 -13 -14 -17 -36 -23 -27 -7 3 5 -1 12 -10 15 -8 3 -12 2 -9 -4 3 -5 -6
-12 -20 -16 -14 -3 -25 -10 -25 -15 0 -5 -5 -8 -12 -6 -6 1 -14 -6 -16 -16 -3
-17 -2 -17 25 -4 17 9 35 11 48 6 11 -4 36 -8 56 -8 20 -1 42 -7 49 -15 9 -12
8 -15 -7 -15 -47 1 -126 -5 -110 -9 9 -2 17 -7 17 -11 0 -12 76 -22 105 -15
14 3 22 11 18 17 -3 5 -1 7 4 4 6 -4 25 -2 43 4 18 7 35 8 40 3 5 -5 -2 -10
-17 -11 -29 -1 -44 -19 -36 -40 4 -10 14 -13 32 -8 37 9 65 7 69 -4 2 -5 10
-7 18 -4 9 3 14 -1 14 -13 0 -16 2 -17 10 -4 5 8 10 11 10 6 0 -5 9 -1 20 9
24 22 29 65 5 45 -8 -7 -15 -10 -15 -7 0 2 6 10 14 17 12 9 19 4 36 -29 19
-38 38 -50 53 -35 8 8 -35 94 -44 88 -4 -2 -5 6 -1 18 4 15 2 19 -7 14 -8 -5
-11 -3 -10 5 3 14 -78 144 -106 173 -9 8 -16 19 -16 23 -1 4 -6 7 -12 5 -7 -2
-9 0 -5 4 8 7 -9 34 -21 34 -3 -1 -26 -19 -51 -41z m187 -186 c1 -24 0 -25 -6
-8 -7 17 -6 35 2 35 2 0 3 -12 4 -27z m73 -120 c0 -3 -7 0 -15 7 -8 7 -15 22
-15 34 0 18 2 17 15 -8 8 -15 15 -31 15 -33z m-89 17 c6 0 7 -5 3 -11 -8 -14
-24 8 -23 31 1 11 3 10 6 -2 2 -10 9 -18 14 -18z"/>
<path d="M8180 20166 c0 -2 8 -10 18 -17 15 -13 16 -12 3 4 -13 16 -21 21 -21
13z"/>
<path d="M8870 20120 c5 -9 17 -23 27 -31 17 -13 17 -12 0 8 -11 12 -16 26
-13 31 3 5 -1 9 -9 9 -10 0 -11 -5 -5 -17z"/>
<path d="M8260 20094 c21 -25 48 -36 56 -22 4 6 3 8 -3 5 -5 -4 -19 3 -31 13
-25 24 -40 27 -22 4z"/>
<path d="M8856 20092 c-3 -5 1 -9 9 -9 8 0 12 4 9 9 -3 4 -7 8 -9 8 -2 0 -6
-4 -9 -8z"/>
<path d="M8930 20075 c6 -8 8 -20 4 -27 -4 -7 -3 -10 1 -5 5 4 17 -1 29 -10
12 -12 9 -4 -8 20 -16 20 -31 37 -33 37 -3 0 0 -7 7 -15z"/>
<path d="M19285 20080 c3 -5 11 -10 16 -10 6 0 7 5 4 10 -3 6 -11 10 -16 10
-6 0 -7 -4 -4 -10z"/>
<path d="M19328 20083 c7 -3 16 -2 19 1 4 3 -2 6 -13 5 -11 0 -14 -3 -6 -6z"/>
<path d="M8354 20060 c0 -13 4 -16 10 -10 7 7 7 13 0 20 -6 6 -10 3 -10 -10z"/>
<path d="M19226 20071 c-6 -10 24 -25 32 -16 3 3 -1 5 -9 5 -11 0 -11 2 1 10
13 8 13 10 -2 10 -9 0 -19 -4 -22 -9z"/>
<path d="M19275 20034 c0 -30 1 -32 18 -17 9 9 17 19 17 22 0 3 -8 11 -17 17
-16 10 -18 7 -18 -22z"/>
<path d="M8320 20046 c0 -2 8 -10 18 -17 15 -13 16 -12 3 4 -13 16 -21 21 -21
13z"/>
<path d="M19570 20037 c-31 -15 -38 -37 -9 -30 16 5 18 8 7 15 -9 7 -5 8 13 4
18 -4 26 -1 26 9 0 18 -4 18 -37 2z"/>
<path d="M8980 19985 c7 -9 15 -13 17 -11 7 7 -7 26 -19 26 -6 0 -6 -6 2 -15z"/>
<path d="M19205 19990 c3 -5 8 -10 11 -10 2 0 4 5 4 10 0 6 -5 10 -11 10 -5 0
-7 -4 -4 -10z"/>
<path d="M8400 19965 c13 -14 26 -25 28 -25 3 0 -5 11 -18 25 -13 14 -26 25
-28 25 -3 0 5 -11 18 -25z"/>
<path d="M22310 19982 c0 -5 -9 -12 -20 -15 -11 -3 -20 -11 -20 -19 0 -8 3 -9
8 -3 4 6 18 15 31 21 17 7 21 13 13 18 -7 4 -12 3 -12 -2z"/>
<path d="M19397 19959 c15 -19 7 -30 -15 -22 -14 5 -15 3 -4 -8 10 -11 15 -11
28 2 13 14 13 17 -3 30 -16 12 -17 12 -6 -2z"/>
<path d="M19571 19956 c-9 -10 -8 -16 4 -26 9 -8 15 -9 14 -4 -4 22 2 35 13
28 7 -4 8 -3 4 4 -9 16 -21 15 -35 -2z"/>
<path d="M9022 19920 c-9 -15 -10 -26 -2 -40 6 -11 9 -24 6 -29 -3 -4 1 -8 9
-8 10 0 11 5 5 16 -4 9 -6 31 -4 49 4 38 3 39 -14 12z"/>
<path d="M19475 19930 c3 -5 8 -10 11 -10 2 0 4 5 4 10 0 6 -5 10 -11 10 -5 0
-7 -4 -4 -10z"/>
<path d="M22285 19929 c-4 -6 -5 -12 -2 -15 2 -3 7 2 10 11 7 17 1 20 -8 4z"/>
<path d="M8464 19893 c16 -18 32 -31 34 -28 3 3 3 6 1 8 -2 1 -17 13 -34 27
l-30 25 29 -32z"/>
<path d="M22532 19882 c-8 -6 -2 -9 18 -9 20 0 26 3 18 9 -7 4 -15 8 -18 8 -3
0 -11 -4 -18 -8z"/>
<path d="M19320 19865 c-11 -13 -10 -14 4 -9 9 3 16 10 16 15 0 13 -6 11 -20
-6z"/>
<path d="M19976 19864 c-3 -9 -6 -17 -6 -18 0 -1 9 -2 20 -2 11 0 20 1 20 2 0
11 -14 34 -20 34 -4 0 -11 -7 -14 -16z"/>
<path d="M9064 19852 c4 -3 14 -7 22 -8 9 -1 13 0 10 4 -4 3 -14 7 -22 8 -9 1
-13 0 -10 -4z"/>
<path d="M22232 19840 c0 -14 2 -19 5 -12 2 6 2 18 0 25 -3 6 -5 1 -5 -13z"/>
<path d="M8516 19841 c-4 -5 -2 -12 3 -15 5 -4 12 -2 15 3 4 5 2 12 -3 15 -5
4 -12 2 -15 -3z"/>
<path d="M22643 19835 c0 -8 4 -12 9 -9 4 3 8 9 8 15 0 5 -4 9 -8 9 -5 0 -9
-7 -9 -15z"/>
<path d="M8555 19820 c3 -5 8 -10 11 -10 2 0 4 5 4 10 0 6 -5 10 -11 10 -5 0
-7 -4 -4 -10z"/>
<path d="M9105 19799 c-4 -6 -5 -12 -2 -15 2 -3 7 2 10 11 7 17 1 20 -8 4z"/>
<path d="M22722 19794 c-7 -8 -8 -14 -3 -14 10 0 25 19 20 25 -2 1 -10 -3 -17
-11z"/>
<path d="M9141 19744 c0 -11 3 -14 6 -6 3 7 2 16 -1 19 -3 4 -6 -2 -5 -13z"/>
<path d="M9155 19690 c10 -11 20 -20 23 -20 3 0 -3 9 -13 20 -10 11 -20 20
-23 20 -3 0 3 -9 13 -20z"/>
<path d="M8645 19651 c14 -18 35 -51 45 -72 23 -43 36 -54 46 -38 4 8 3 9 -5
5 -7 -5 -17 5 -25 26 -8 18 -31 51 -51 73 -28 30 -30 31 -10 6z"/>
<path d="M22664 19653 c-2 -27 -1 -27 14 3 8 15 8 21 -1 21 -7 0 -13 -11 -13
-24z"/>
<path d="M22131 19623 c-10 -26 -10 -27 4 -9 8 11 15 23 15 28 0 15 -7 8 -19
-19z"/>
<path d="M9215 19620 c-4 -6 -11 -7 -17 -4 -7 4 -8 2 -4 -5 6 -9 11 -9 22 0
14 11 18 19 10 19 -3 0 -8 -5 -11 -10z"/>
<path d="M22106 19565 c-9 -26 -7 -32 5 -12 6 10 9 21 6 23 -2 3 -7 -2 -11
-11z"/>
<path d="M22091 19514 c0 -11 3 -14 6 -6 3 7 2 16 -1 19 -3 4 -6 -2 -5 -13z"/>
<path d="M8736 19507 c3 -10 9 -15 12 -12 3 3 0 11 -7 18 -10 9 -11 8 -5 -6z"/>
<path d="M22605 19509 c-4 -6 -5 -12 -2 -15 2 -3 7 2 10 11 7 17 1 20 -8 4z"/>
<path d="M9300 19474 c0 -6 7 -19 16 -30 14 -18 14 -18 3 6 -14 31 -19 36 -19
24z"/>
<path d="M22581 19464 c0 -11 3 -14 6 -6 3 7 2 16 -1 19 -3 4 -6 -2 -5 -13z"/>
<path d="M22560 19441 c0 -6 4 -13 10 -16 6 -3 7 1 4 9 -7 18 -14 21 -14 7z"/>
<path d="M8776 19428 c3 -5 10 -6 15 -3 13 9 11 12 -6 12 -8 0 -12 -4 -9 -9z"/>
<path d="M22550 19405 c0 -8 4 -15 10 -15 5 0 7 7 4 15 -4 8 -8 15 -10 15 -2
0 -4 -7 -4 -15z"/>
<path d="M8796 19397 c3 -10 9 -15 12 -12 3 3 0 11 -7 18 -10 9 -11 8 -5 -6z"/>
<path d="M9327 19383 c3 -7 6 -13 8 -13 2 0 5 6 8 13 3 8 -1 14 -8 14 -7 0
-11 -6 -8 -14z"/>
<path d="M8820 19381 c0 -6 4 -13 10 -16 6 -3 7 1 4 9 -7 18 -14 21 -14 7z"/>
<path d="M9360 19311 c0 -6 4 -13 10 -16 6 -3 7 1 4 9 -7 18 -14 21 -14 7z"/>
<path d="M8861 19273 c7 -12 15 -20 18 -17 3 2 -3 12 -13 22 -17 16 -18 16 -5
-5z"/>
<path d="M21980 19260 c-6 -11 -8 -20 -6 -20 3 0 10 9 16 20 6 11 8 20 6 20
-3 0 -10 -9 -16 -20z"/>
<path d="M22491 19249 c-7 -12 -10 -23 -8 -26 3 -3 11 5 17 17 15 28 8 35 -9
9z"/>
<path d="M9415 19229 c-4 -6 -5 -12 -2 -15 2 -3 7 2 10 11 7 17 1 20 -8 4z"/>
<path d="M21956 19203 c-6 -14 -5 -15 5 -6 7 7 10 15 7 18 -3 3 -9 -2 -12 -12z"/>
<path d="M8907 19183 c3 -7 6 -13 8 -13 2 0 5 6 8 13 3 8 -1 14 -8 14 -7 0
-11 -6 -8 -14z"/>
<path d="M22436 19115 c-9 -26 -7 -32 5 -12 6 10 9 21 6 23 -2 3 -7 -2 -11
-11z"/>
<path d="M9500 19061 c0 -7 -5 -9 -12 -5 -7 5 -8 3 -3 -5 5 -9 10 -10 18 -2 6
6 8 14 4 18 -4 3 -7 1 -7 -6z"/>
<path d="M8986 19027 c3 -10 9 -15 12 -12 3 3 0 11 -7 18 -10 9 -11 8 -5 -6z"/>
<path d="M21866 19005 c-3 -9 -6 -22 -5 -28 0 -7 5 -1 10 12 5 13 8 26 5 28
-2 2 -6 -3 -10 -12z"/>
<path d="M9541 18964 c0 -11 3 -14 6 -6 3 7 2 16 -1 19 -3 4 -6 -2 -5 -13z"/>
<path d="M9025 18957 c11 -9 15 -19 10 -28 -6 -11 -5 -12 5 -2 11 10 11 15 0
28 -7 8 -17 15 -23 15 -6 0 -3 -6 8 -13z"/>
<path d="M22365 18949 c-4 -6 -5 -12 -2 -15 2 -3 7 2 10 11 7 17 1 20 -8 4z"/>
<path d="M9070 18901 c0 -6 4 -13 10 -16 6 -3 7 1 4 9 -7 18 -14 21 -14 7z"/>
<path d="M22320 18879 c0 -5 5 -7 10 -4 6 3 10 8 10 11 0 2 -4 4 -10 4 -5 0
-10 -5 -10 -11z"/>
<path d="M9590 18839 c0 -5 5 -7 10 -4 6 3 10 8 10 11 0 2 -4 4 -10 4 -5 0
-10 -5 -10 -11z"/>
<path d="M21785 18789 c8 -11 -6 -40 -16 -33 -5 3 -6 -2 -3 -11 7 -19 7 -19
27 21 13 25 13 31 2 31 -8 0 -12 -4 -10 -8z"/>
<path d="M9631 18764 c0 -11 3 -14 6 -6 3 7 2 16 -1 19 -3 4 -6 -2 -5 -13z"/>
<path d="M22269 18743 c-13 -16 -12 -17 4 -4 16 13 21 21 13 21 -2 0 -10 -8
-17 -17z"/>
<path d="M9130 18726 c0 -2 7 -7 16 -10 8 -3 12 -2 9 4 -6 10 -25 14 -25 6z"/>
<path d="M21740 18700 c-6 -11 -8 -20 -6 -20 3 0 10 9 16 20 6 11 8 20 6 20
-3 0 -10 -9 -16 -20z"/>
<path d="M22262 18708 c-10 -13 -28 -67 -20 -58 9 8 39 70 34 70 -2 0 -8 -6
-14 -12z"/>
<path d="M9185 18629 c-4 -6 -5 -12 -2 -15 2 -3 7 2 10 11 7 17 1 20 -8 4z"/>
<path d="M9190 18591 c0 -6 5 -13 10 -16 6 -3 10 1 10 9 0 9 -4 16 -10 16 -5
0 -10 -4 -10 -9z"/>
<path d="M9660 18575 c0 -8 2 -15 4 -15 2 0 6 7 10 15 3 8 1 15 -4 15 -6 0
-10 -7 -10 -15z"/>
<path d="M21686 18575 c-3 -8 -1 -15 4 -15 6 0 10 7 10 15 0 8 -2 15 -4 15 -2
0 -6 -7 -10 -15z"/>
<path d="M9761 18464 c0 -11 3 -14 6 -6 3 7 2 16 -1 19 -3 4 -6 -2 -5 -13z"/>
<path d="M21626 18445 c-3 -9 -6 -22 -5 -28 0 -7 5 -1 10 12 5 13 8 26 5 28
-2 2 -6 -3 -10 -12z"/>
<path d="M9781 18434 c0 -11 3 -14 6 -6 3 7 2 16 -1 19 -3 4 -6 -2 -5 -13z"/>
<path d="M9287 18372 c1 -8 3 -16 3 -18 0 -3 5 -2 10 1 6 3 10 14 10 23 0 13
-2 14 -9 3 -5 -7 -11 -9 -13 -5 -3 5 -3 3 -1 -4z"/>
<path d="M22110 18365 c0 -8 2 -15 4 -15 2 0 6 7 10 15 3 8 1 15 -4 15 -6 0
-10 -7 -10 -15z"/>
<path d="M9826 18320 c8 -43 14 -51 14 -19 0 13 -5 31 -10 39 -7 11 -8 5 -4
-20z"/>
<path d="M9346 18243 c-6 -14 -5 -15 5 -6 7 7 10 15 7 18 -3 3 -9 -2 -12 -12z"/>
<path d="M21547 18233 c3 -7 6 -13 8 -13 2 0 5 6 8 13 3 8 -1 14 -8 14 -7 0
-11 -6 -8 -14z"/>
<path d="M9860 18233 c0 -6 8 -17 18 -24 16 -13 16 -13 2 6 -8 11 -16 22 -17
24 -2 2 -3 0 -3 -6z"/>
<path d="M9360 18200 c6 -11 13 -20 16 -20 2 0 0 9 -6 20 -6 11 -13 20 -16 20
-2 0 0 -9 6 -20z"/>
<path d="M22041 18197 c-13 -21 -12 -21 5 -5 10 10 16 20 13 22 -3 3 -11 -5
-18 -17z"/>
<path d="M21535 18159 c-4 -6 -5 -12 -2 -15 2 -3 7 2 10 11 7 17 1 20 -8 4z"/>
<path d="M22000 18156 c0 -2 8 -10 18 -17 15 -13 16 -12 3 4 -13 16 -21 21
-21 13z"/>
<path d="M21552 18130 c0 -14 2 -19 5 -12 2 6 2 18 0 25 -3 6 -5 1 -5 -13z"/>
<path d="M9396 18117 c3 -10 9 -15 12 -12 3 3 0 11 -7 18 -10 9 -11 8 -5 -6z"/>
<path d="M9921 18115 c1 -19 18 -51 18 -35 0 8 -4 22 -9 30 -5 8 -9 11 -9 5z"/>
<path d="M9901 18094 c0 -11 3 -14 6 -6 3 7 2 16 -1 19 -3 4 -6 -2 -5 -13z"/>
<path d="M9417 18063 c3 -7 6 -13 8 -13 2 0 5 6 8 13 3 8 -1 14 -8 14 -7 0
-11 -6 -8 -14z"/>
<path d="M21456 18045 c-9 -26 -7 -32 5 -12 6 10 9 21 6 23 -2 3 -7 -2 -11
-11z"/>
<path d="M9950 18044 c0 -6 7 -19 16 -30 14 -18 14 -18 3 6 -14 31 -19 36 -19
24z"/>
<path d="M9430 18030 c0 -5 5 -10 11 -10 5 0 7 5 4 10 -3 6 -8 10 -11 10 -2 0
-4 -4 -4 -10z"/>
<path d="M9940 18011 c0 -6 4 -13 10 -16 6 -3 7 1 4 9 -7 18 -14 21 -14 7z"/>
<path d="M9450 18006 c0 -2 7 -7 16 -10 8 -3 12 -2 9 4 -6 10 -25 14 -25 6z"/>
<path d="M21947 17983 c3 -7 6 -13 8 -13 2 0 5 6 8 13 3 8 -1 14 -8 14 -7 0
-11 -6 -8 -14z"/>
<path d="M9460 17975 c0 -5 5 -17 10 -25 5 -8 10 -10 10 -5 0 6 -5 17 -10 25
-5 8 -10 11 -10 5z"/>
<path d="M21901 17964 c0 -11 3 -14 6 -6 3 7 2 16 -1 19 -3 4 -6 -2 -5 -13z"/>
<path d="M9995 17931 c-6 -11 13 -26 22 -17 4 3 1 6 -6 6 -7 0 -9 5 -6 10 3 6
4 10 1 10 -3 0 -7 -4 -11 -9z"/>
<path d="M9487 17903 c3 -7 6 -13 8 -13 2 0 5 6 8 13 3 8 -1 14 -8 14 -7 0
-11 -6 -8 -14z"/>
<path d="M21912 17894 c-7 -8 -12 -20 -9 -27 2 -7 9 -2 16 11 15 28 11 36 -7
16z"/>
<path d="M9506 17865 c4 -8 8 -15 10 -15 2 0 4 7 4 15 0 8 -4 15 -10 15 -5 0
-7 -7 -4 -15z"/>
<path d="M21381 17854 c0 -11 3 -14 6 -6 3 7 2 16 -1 19 -3 4 -6 -2 -5 -13z"/>
<path d="M21871 17804 c0 -11 3 -14 6 -6 3 7 2 16 -1 19 -3 4 -6 -2 -5 -13z"/>
<path d="M10054 17789 c-3 -6 2 -18 12 -27 17 -16 17 -16 5 0 -7 9 -10 22 -6
28 3 5 4 10 1 10 -3 0 -8 -5 -12 -11z"/>
<path d="M21312 17704 c-9 -18 -9 -30 -1 -42 9 -15 10 -15 5 1 -3 10 -1 28 5
39 6 11 9 22 6 24 -2 2 -9 -7 -15 -22z"/>
<path d="M21836 17715 c-9 -26 -7 -32 5 -12 6 10 9 21 6 23 -2 3 -7 -2 -11
-11z"/>
<path d="M10115 17650 c3 -5 8 -10 11 -10 2 0 4 5 4 10 0 6 -5 10 -11 10 -5 0
-7 -4 -4 -10z"/>
<path d="M21286 17645 c-9 -26 -7 -32 5 -12 6 10 9 21 6 23 -2 3 -7 -2 -11
-11z"/>
<path d="M21290 17595 c0 -8 2 -15 4 -15 2 0 6 7 10 15 3 8 1 15 -4 15 -6 0
-10 -7 -10 -15z"/>
<path d="M21766 17602 c-2 -4 -1 -14 4 -22 7 -11 9 -9 7 8 -1 24 -3 26 -11 14z"/>
<path d="M21311 17564 c0 -11 3 -14 6 -6 3 7 2 16 -1 19 -3 4 -6 -2 -5 -13z"/>
<path d="M21736 17563 c-6 -14 -5 -15 5 -6 7 7 10 15 7 18 -3 3 -9 -2 -12 -12z"/>
<path d="M21240 17541 c0 -6 4 -13 10 -16 6 -3 7 1 4 9 -7 18 -14 21 -14 7z"/>
<path d="M21747 17537 c-3 -7 -2 -19 3 -26 5 -10 8 -9 13 2 3 7 2 19 -3 26 -5
10 -8 9 -13 -2z"/>
<path d="M10181 17494 c0 -11 3 -14 6 -6 3 7 2 16 -1 19 -3 4 -6 -2 -5 -13z"/>
<path d="M10200 17461 c0 -6 4 -13 10 -16 6 -3 7 1 4 9 -7 18 -14 21 -14 7z"/>
<path d="M21715 17429 c-4 -6 -5 -12 -2 -15 2 -3 7 2 10 11 7 17 1 20 -8 4z"/>
<path d="M21220 17415 c0 -5 5 -17 10 -25 5 -8 10 -10 10 -5 0 6 -5 17 -10 25
-5 8 -10 11 -10 5z"/>
<path d="M21690 17385 c0 -8 2 -15 4 -15 2 0 6 7 10 15 3 8 1 15 -4 15 -6 0
-10 -7 -10 -15z"/>
<path d="M21676 17347 c3 -10 9 -15 12 -12 3 3 0 11 -7 18 -10 9 -11 8 -5 -6z"/>
<path d="M10265 17300 c3 -5 8 -10 11 -10 2 0 4 5 4 10 0 6 -5 10 -11 10 -5 0
-7 -4 -4 -10z"/>
<path d="M21128 17270 c-9 -22 -15 -40 -13 -40 8 0 36 61 33 70 -2 5 -11 -9
-20 -30z"/>
<path d="M9772 17249 c6 -16 12 -29 13 -27 6 6 -8 58 -16 58 -4 0 -3 -14 3
-31z"/>
<path d="M21637 17263 c-4 -3 -7 -11 -7 -17 0 -6 5 -5 12 2 6 6 9 14 7 17 -3
3 -9 2 -12 -2z"/>
<path d="M10300 17219 c0 -11 4 -18 10 -14 5 3 7 12 3 20 -7 21 -13 19 -13 -6z"/>
<path d="M21582 17220 c0 -14 2 -19 5 -12 2 6 2 18 0 25 -3 6 -5 1 -5 -13z"/>
<path d="M9805 17189 c-4 -6 -5 -12 -2 -15 2 -3 7 2 10 11 7 17 1 20 -8 4z"/>
<path d="M9871 17154 c0 -11 3 -14 6 -6 3 7 2 16 -1 19 -3 4 -6 -2 -5 -13z"/>
<path d="M21590 17160 c0 -5 5 -10 11 -10 5 0 7 5 4 10 -3 6 -8 10 -11 10 -2
0 -4 -4 -4 -10z"/>
<path d="M21066 17135 c-3 -9 -2 -24 3 -32 7 -14 10 -13 16 6 8 27 -9 51 -19
26z"/>
<path d="M9851 17124 c0 -11 3 -14 6 -6 3 7 2 16 -1 19 -3 4 -6 -2 -5 -13z"/>
<path d="M21581 17121 c-8 -5 -9 -11 -3 -15 5 -3 12 1 16 9 6 17 6 18 -13 6z"/>
<path d="M21530 17020 c0 -5 5 -10 11 -10 5 0 7 5 4 10 -3 6 -8 10 -11 10 -2
0 -4 -4 -4 -10z"/>
<path d="M10395 17009 c-4 -6 -5 -12 -2 -15 2 -3 7 2 10 11 7 17 1 20 -8 4z"/>
<path d="M21012 16995 c-17 -37 -14 -45 4 -12 9 16 14 31 11 33 -2 2 -9 -7
-15 -21z"/>
<path d="M21496 17003 c-6 -14 -5 -15 5 -6 7 7 10 15 7 18 -3 3 -9 -2 -12 -12z"/>
<path d="M21509 16978 c-1 -7 -1 -16 0 -20 0 -4 -4 -20 -10 -35 -7 -20 -7 -25
1 -17 11 11 24 84 15 84 -3 0 -6 -6 -6 -12z"/>
<path d="M9914 16941 c0 -11 5 -17 10 -14 5 4 7 -1 3 -11 -4 -10 -3 -15 3 -11
13 8 13 18 -3 39 -12 16 -13 16 -13 -3z"/>
<path d="M10430 16941 c0 -6 4 -13 10 -16 6 -3 7 1 4 9 -7 18 -14 21 -14 7z"/>
<path d="M9945 16890 c-3 -10 1 -32 10 -47 9 -15 13 -19 10 -8 -17 48 -18 58
-7 51 8 -5 10 -2 6 8 -8 21 -11 20 -19 -4z"/>
<path d="M10415 16900 c3 -5 8 -10 11 -10 2 0 4 5 4 10 0 6 -5 10 -11 10 -5 0
-7 -4 -4 -10z"/>
<path d="M10446 16893 c-6 -14 -5 -15 5 -6 7 7 10 15 7 18 -3 3 -9 -2 -12 -12z"/>
<path d="M21453 16825 c-3 -9 -3 -18 -1 -21 3 -3 8 4 11 16 6 23 -1 27 -10 5z"/>
<path d="M10490 16808 c0 -9 5 -20 10 -23 13 -8 13 5 0 25 -8 13 -10 13 -10
-2z"/>
<path d="M9976 16787 c3 -10 9 -15 12 -12 3 3 0 11 -7 18 -10 9 -11 8 -5 -6z"/>
<path d="M21430 16759 c-7 -11 -10 -23 -7 -25 2 -2 9 7 15 21 14 30 7 33 -8 4z"/>
<path d="M10510 16764 c0 -6 7 -19 16 -30 14 -18 14 -18 3 6 -14 31 -19 36
-19 24z"/>
<path d="M20892 16718 c-10 -30 -10 -31 3 -14 13 17 21 46 12 46 -1 0 -8 -15
-15 -32z"/>
<path d="M10052 16616 c15 -30 16 -30 14 -3 0 13 -6 24 -13 24 -9 0 -9 -6 -1
-21z"/>
<path d="M21371 16624 c0 -11 3 -14 6 -6 3 7 2 16 -1 19 -3 4 -6 -2 -5 -13z"/>
<path d="M21340 16624 c0 -6 7 -19 15 -30 8 -10 14 -14 14 -9 0 6 -6 19 -14
29 -8 11 -15 15 -15 10z"/>
<path d="M10590 16581 c0 -6 4 -13 10 -16 6 -3 7 1 4 9 -7 18 -14 21 -14 7z"/>
<path d="M10076 16555 c4 -8 8 -15 10 -15 2 0 4 7 4 15 0 8 -4 15 -10 15 -5 0
-7 -7 -4 -15z"/>
<path d="M21345 16559 c-4 -6 -5 -12 -2 -15 2 -3 7 2 10 11 7 17 1 20 -8 4z"/>
<path d="M21320 16531 c0 -5 5 -13 10 -16 6 -3 10 -2 10 4 0 5 -4 13 -10 16
-5 3 -10 2 -10 -4z"/>
<path d="M10105 16510 c-3 -5 -1 -10 4 -10 6 0 11 5 11 10 0 6 -2 10 -4 10 -3
0 -8 -4 -11 -10z"/>
<path d="M10620 16515 c0 -5 5 -17 10 -25 5 -8 10 -10 10 -5 0 6 -5 17 -10 25
-5 8 -10 11 -10 5z"/>
<path d="M20800 16511 c0 -6 4 -12 10 -16 5 -3 7 -13 4 -23 -5 -14 -4 -14 4
-3 7 10 7 21 1 33 -11 20 -19 23 -19 9z"/>
<path d="M10117 16463 c3 -7 6 -13 8 -13 2 0 5 6 8 13 3 8 -1 14 -8 14 -7 0
-11 -6 -8 -14z"/>
<path d="M21290 16461 c0 -5 5 -13 10 -16 6 -3 10 -2 10 4 0 5 -4 13 -10 16
-5 3 -10 2 -10 -4z"/>
<path d="M20761 16413 c-10 -26 -10 -27 4 -9 8 11 15 23 15 28 0 15 -7 8 -19
-19z"/>
<path d="M21260 16390 c0 -5 5 -10 11 -10 5 0 7 5 4 10 -3 6 -8 10 -11 10 -2
0 -4 -4 -4 -10z"/>
<path d="M10167 16362 c1 -8 3 -16 3 -18 0 -3 5 -2 10 1 6 3 10 11 10 16 0 6
-4 8 -9 5 -5 -4 -11 -3 -14 1 -2 5 -2 2 0 -5z"/>
<path d="M10676 16322 c-2 -4 7 -8 20 -8 13 -1 24 1 24 5 0 9 -38 12 -44 3z"/>
<path d="M20717 16311 c-4 -17 -3 -21 5 -13 5 5 8 16 6 23 -3 8 -7 3 -11 -10z"/>
<path d="M10195 16309 c-11 -16 -1 -19 13 -3 7 8 8 14 3 14 -5 0 -13 -5 -16
-11z"/>
<path d="M10715 16289 c-4 -6 -5 -12 -2 -15 2 -3 7 2 10 11 7 17 1 20 -8 4z"/>
<path d="M10234 16220 c0 -13 4 -16 10 -10 7 7 7 13 0 20 -6 6 -10 3 -10 -10z"/>
<path d="M21186 16199 c5 -19 4 -21 -5 -9 -13 18 -15 1 -2 -19 7 -11 10 -9 16
9 4 12 2 27 -3 32 -8 8 -9 4 -6 -13z"/>
<path d="M20662 16185 c-17 -37 -14 -45 4 -12 9 16 14 31 11 33 -2 2 -9 -7
-15 -21z"/>
<path d="M10245 16190 c-3 -5 -1 -10 4 -10 6 0 11 5 11 10 0 6 -2 10 -4 10 -3
0 -8 -4 -11 -10z"/>
<path d="M10265 16170 c-3 -10 1 -32 10 -47 9 -15 13 -19 10 -8 -17 48 -18 58
-7 51 8 -5 10 -2 6 8 -8 21 -11 20 -19 -4z"/>
<path d="M21151 16114 c0 -11 3 -14 6 -6 3 7 2 16 -1 19 -3 4 -6 -2 -5 -13z"/>
<path d="M10797 16107 c-3 -8 1 -14 8 -14 7 0 11 6 8 14 -3 7 -6 13 -8 13 -2
0 -5 -6 -8 -13z"/>
<path d="M20660 16101 c0 -6 4 -13 10 -16 6 -3 7 1 4 9 -7 18 -14 21 -14 7z"/>
<path d="M10296 16067 c3 -10 9 -15 12 -12 3 3 0 11 -7 18 -10 9 -11 8 -5 -6z"/>
<path d="M10825 16039 c-4 -6 -5 -12 -2 -15 2 -3 7 2 10 11 7 17 1 20 -8 4z"/>
<path d="M10837 16017 c-3 -8 1 -14 8 -14 7 0 11 6 8 14 -3 7 -6 13 -8 13 -2
0 -5 -6 -8 -13z"/>
<path d="M20590 16021 c0 -6 4 -13 10 -16 6 -3 7 1 4 9 -7 18 -14 21 -14 7z"/>
<path d="M10346 15973 c-6 -14 -5 -15 5 -6 7 7 10 15 7 18 -3 3 -9 -2 -12 -12z"/>
<path d="M20562 15951 c-6 -17 -9 -31 -6 -31 7 0 25 52 20 57 -2 2 -8 -10 -14
-26z"/>
<path d="M21059 15913 c-13 -16 -12 -17 4 -4 16 13 21 21 13 21 -2 0 -10 -8
-17 -17z"/>
<path d="M10371 15900 c14 -31 19 -36 19 -24 0 6 -7 19 -16 30 -14 18 -14 18
-3 -6z"/>
<path d="M10890 15915 c0 -5 5 -17 10 -25 5 -8 10 -10 10 -5 0 6 -5 17 -10 25
-5 8 -10 11 -10 5z"/>
<path d="M20536 15885 c-9 -26 -7 -32 5 -12 6 10 9 21 6 23 -2 3 -7 -2 -11
-11z"/>
<path d="M10910 15861 c0 -6 4 -13 10 -16 6 -3 7 1 4 9 -7 18 -14 21 -14 7z"/>
<path d="M10965 15729 c-4 -6 -5 -12 -2 -15 2 -3 7 2 10 11 7 17 1 20 -8 4z"/>
<path d="M10456 15705 c4 -8 8 -15 10 -15 2 0 4 7 4 15 0 8 -4 15 -10 15 -5 0
-7 -7 -4 -15z"/>
<path d="M20457 15698 c-4 -12 -4 -24 -2 -27 3 -2 5 1 5 8 0 7 4 10 9 7 5 -4
7 3 4 14 -7 25 -9 25 -16 -2z"/>
<path d="M10480 15655 c0 -5 5 -17 10 -25 5 -8 10 -10 10 -5 0 6 -5 17 -10 25
-5 8 -10 11 -10 5z"/>
<path d="M11035 15569 c-4 -6 -5 -12 -2 -15 2 -3 7 2 10 11 7 17 1 20 -8 4z"/>
<path d="M10554 15501 c0 -11 5 -17 10 -14 5 4 7 -1 3 -11 -4 -10 -3 -15 3
-11 13 8 13 18 -3 39 -12 16 -13 16 -13 -3z"/>
<path d="M11066 15507 c3 -10 9 -15 12 -12 3 3 0 11 -7 18 -10 9 -11 8 -5 -6z"/>
<path d="M20891 15503 c-1 -6 -4 -20 -7 -30 -5 -17 -5 -17 6 0 6 10 9 23 6 30
-3 9 -5 9 -5 0z"/>
<path d="M10593 15467 c-8 -17 -8 -24 0 -24 7 0 13 11 13 24 2 29 0 29 -13 0z"/>
<path d="M11110 15415 c0 -5 5 -17 10 -25 5 -8 10 -10 10 -5 0 6 -5 17 -10 25
-5 8 -10 11 -10 5z"/>
<path d="M20331 15415 c0 -5 6 -19 14 -29 8 -11 15 -15 15 -10 0 6 -7 19 -15
30 -8 10 -14 15 -14 9z"/>
<path d="M20316 15373 c-6 -14 -5 -15 5 -6 7 7 10 15 7 18 -3 3 -9 -2 -12 -12z"/>
<path d="M10626 15330 c21 -43 24 -47 24 -28 0 9 -9 26 -20 39 l-21 24 17 -35z"/>
<path d="M20790 15344 c0 -6 6 -18 13 -28 13 -18 14 -18 21 -1 3 10 4 20 1 23
-3 3 -5 -1 -5 -9 -1 -10 -5 -8 -15 5 -8 11 -15 15 -15 10z"/>
<path d="M20301 15324 c0 -11 3 -14 6 -6 3 7 2 16 -1 19 -3 4 -6 -2 -5 -13z"/>
<path d="M14410 15300 c0 -5 7 -10 16 -10 8 0 12 5 9 10 -3 6 -10 10 -16 10
-5 0 -9 -4 -9 -10z"/>
<path d="M10654 15275 c-3 -8 1 -24 10 -37 9 -12 16 -17 16 -11 0 7 -5 15 -11
19 -6 3 -9 15 -6 25 6 22 -1 26 -9 4z"/>
<path d="M20796 15275 c-9 -26 -7 -32 5 -12 6 10 9 21 6 23 -2 3 -7 -2 -11
-11z"/>
<path d="M20260 15251 c0 -6 4 -13 10 -16 6 -3 7 1 4 9 -7 18 -14 21 -14 7z"/>
<path d="M11201 15194 c0 -11 3 -14 6 -6 3 7 2 16 -1 19 -3 4 -6 -2 -5 -13z"/>
<path d="M10686 15187 c3 -10 9 -15 12 -12 3 3 0 11 -7 18 -10 9 -11 8 -5 -6z"/>
<path d="M20760 15191 c0 -7 -4 -9 -10 -6 -6 4 -7 -1 -3 -11 6 -15 7 -15 15 1
6 9 7 19 4 22 -3 4 -6 1 -6 -6z"/>
<path d="M11220 15161 c0 -6 4 -13 10 -16 6 -3 7 1 4 9 -7 18 -14 21 -14 7z"/>
<path d="M10711 15144 c0 -11 3 -14 6 -6 3 7 2 16 -1 19 -3 4 -6 -2 -5 -13z"/>
<path d="M10736 15083 c-6 -14 -5 -15 5 -6 7 7 10 15 7 18 -3 3 -9 -2 -12 -12z"/>
<path d="M20195 15089 c-10 -15 -13 -59 -5 -64 4 -2 7 1 7 8 0 7 3 25 7 40 7
28 2 35 -9 16z"/>
<path d="M20691 15064 c0 -11 3 -14 6 -6 3 7 2 16 -1 19 -3 4 -6 -2 -5 -13z"/>
<path d="M11266 15037 c3 -10 9 -15 12 -12 3 3 0 11 -7 18 -10 9 -11 8 -5 -6z"/>
<path d="M20675 14999 c-4 -6 -5 -12 -2 -15 2 -3 7 2 10 11 7 17 1 20 -8 4z"/>
<path d="M20154 14980 c0 -13 4 -16 10 -10 7 7 7 13 0 20 -6 6 -10 3 -10 -10z"/>
<path d="M10821 14913 c0 -17 4 -35 10 -38 6 -4 8 -14 4 -24 -5 -12 -4 -13 6
-4 9 9 9 16 1 25 -5 7 -12 27 -15 43 l-4 30 -2 -32z"/>
<path d="M20125 14920 c-3 -5 -1 -10 4 -10 6 0 11 5 11 10 0 6 -2 10 -4 10 -3
0 -8 -4 -11 -10z"/>
<path d="M20615 14900 c4 -6 2 -17 -4 -24 -9 -10 -8 -15 3 -19 11 -4 13 -1 9
10 -5 11 -3 14 6 8 10 -6 11 -3 2 14 -7 11 -14 21 -17 21 -3 0 -2 -5 1 -10z"/>
<path d="M20121 14854 c0 -11 3 -14 6 -6 3 7 2 16 -1 19 -3 4 -6 -2 -5 -13z"/>
<path d="M20090 14850 c0 -5 5 -10 11 -10 5 0 7 5 4 10 -3 6 -8 10 -11 10 -2
0 -4 -4 -4 -10z"/>
<path d="M20076 14813 c-6 -14 -5 -15 5 -6 7 7 10 15 7 18 -3 3 -9 -2 -12 -12z"/>
<path d="M11382 14760 c-7 -11 -8 -20 -3 -20 9 0 24 30 18 36 -1 2 -8 -6 -15
-16z"/>
<path d="M11397 14737 c-3 -8 1 -14 8 -14 7 0 11 6 8 14 -3 7 -6 13 -8 13 -2
0 -5 -6 -8 -13z"/>
<path d="M10891 14714 c0 -11 3 -14 6 -6 3 7 2 16 -1 19 -3 4 -6 -2 -5 -13z"/>
<path d="M20022 14684 c-9 -18 -9 -30 -1 -42 9 -15 10 -15 5 1 -3 10 -1 28 5
39 6 11 9 22 6 24 -2 2 -9 -7 -15 -22z"/>
<path d="M20535 14669 c-4 -6 -5 -12 -2 -15 2 -3 7 2 10 11 7 17 1 20 -8 4z"/>
<path d="M10931 14620 c14 -31 19 -36 19 -24 0 6 -7 19 -16 30 -14 18 -14 18
-3 -6z"/>
<path d="M20027 14599 c4 -13 8 -18 11 -10 2 7 -1 18 -6 23 -8 8 -9 4 -5 -13z"/>
<path d="M11460 14601 c0 -6 4 -13 10 -16 6 -3 7 1 4 9 -7 18 -14 21 -14 7z"/>
<path d="M19986 14593 c-4 -9 -3 -20 1 -24 4 -4 9 3 9 17 2 28 -1 31 -10 7z"/>
<path d="M10956 14555 c4 -8 8 -15 10 -15 2 0 4 7 4 15 0 8 -4 15 -10 15 -5 0
-7 -7 -4 -15z"/>
<path d="M19450 14541 c0 -6 5 -13 10 -16 6 -3 10 1 10 9 0 9 -4 16 -10 16 -5
0 -10 -4 -10 -9z"/>
<path d="M19953 14523 c-3 -10 -8 -22 -11 -27 -3 -5 0 -6 5 -3 11 7 25 47 17
47 -3 0 -7 -8 -11 -17z"/>
<path d="M10986 14513 c-6 -14 -5 -15 5 -6 7 7 10 15 7 18 -3 3 -9 -2 -12 -12z"/>
<path d="M11501 14504 c0 -11 3 -14 6 -6 3 7 2 16 -1 19 -3 4 -6 -2 -5 -13z"/>
<path d="M11006 14463 c-6 -14 -5 -15 5 -6 7 7 10 15 7 18 -3 3 -9 -2 -12 -12z"/>
<path d="M19939 14459 c-6 -13 -7 -19 -1 -15 6 3 12 0 15 -6 2 -7 4 -1 3 14
-1 34 -2 34 -17 7z"/>
<path d="M20435 14439 c-4 -6 -5 -12 -2 -15 2 -3 7 2 10 11 7 17 1 20 -8 4z"/>
<path d="M11016 14430 c7 -8 14 -24 17 -35 4 -19 5 -19 6 1 0 12 -7 28 -16 35
-16 12 -17 12 -7 -1z"/>
<path d="M11540 14419 c0 -5 -5 -7 -12 -3 -7 4 -2 -7 11 -25 13 -18 25 -30 28
-27 3 3 -2 12 -10 21 -9 8 -14 22 -11 30 4 8 3 15 0 15 -3 0 -6 -5 -6 -11z"/>
<path d="M19907 14416 c-4 -10 -1 -13 9 -9 15 6 19 23 5 23 -5 0 -11 -7 -14
-14z"/>
<path d="M11570 14341 c0 -6 4 -13 10 -16 6 -3 7 1 4 9 -7 18 -14 21 -14 7z"/>
<path d="M20378 14332 c-3 -11 0 -19 7 -19 7 0 10 8 7 19 -2 10 -6 18 -7 18
-1 0 -5 -8 -7 -18z"/>
<path d="M19870 14330 c0 -5 5 -10 11 -10 5 0 7 5 4 10 -3 6 -8 10 -11 10 -2
0 -4 -4 -4 -10z"/>
<path d="M19845 14290 c-3 -6 1 -7 9 -4 9 3 16 1 16 -5 0 -6 -5 -11 -11 -11
-5 0 -7 -5 -3 -11 5 -8 10 -6 16 5 15 26 -11 51 -27 26z"/>
<path d="M20365 14269 c-4 -6 -5 -12 -2 -15 2 -3 7 2 10 11 7 17 1 20 -8 4z"/>
<path d="M11629 14247 c6 -8 7 -18 3 -22 -4 -5 -1 -5 6 -1 10 6 10 11 1 22 -6
8 -14 14 -16 14 -3 0 0 -6 6 -13z"/>
<path d="M19803 14205 c0 -30 6 -28 12 4 2 11 0 21 -4 21 -5 0 -8 -11 -8 -25z"/>
<path d="M11667 14179 c7 -7 15 -10 18 -7 3 3 -2 9 -12 12 -14 6 -15 5 -6 -5z"/>
<path d="M19770 14180 c0 -5 5 -10 11 -10 5 0 7 5 4 10 -3 6 -8 10 -11 10 -2
0 -4 -4 -4 -10z"/>
<path d="M20300 14140 c0 -5 5 -10 11 -10 5 0 7 5 4 10 -3 6 -8 10 -11 10 -2
0 -4 -4 -4 -10z"/>
<path d="M11140 14131 c0 -6 4 -13 10 -16 6 -3 7 1 4 9 -7 18 -14 21 -14 7z"/>
<path d="M11774 14126 c11 -9 24 -16 30 -16 12 0 7 5 -24 19 -24 11 -24 11 -6
-3z"/>
<path d="M19665 14120 c3 -5 8 -10 11 -10 2 0 4 5 4 10 0 6 -5 10 -11 10 -5 0
-7 -4 -4 -10z"/>
<path d="M11177 14063 c3 -7 6 -13 8 -13 2 0 5 6 8 13 3 8 -1 14 -8 14 -7 0
-11 -6 -8 -14z"/>
<path d="M20246 14037 c3 -10 9 -15 12 -12 3 3 0 11 -7 18 -10 9 -11 8 -5 -6z"/>
<path d="M11240 14000 c0 -5 5 -10 11 -10 5 0 7 5 4 10 -3 6 -8 10 -11 10 -2
0 -4 -4 -4 -10z"/>
<path d="M11286 13905 c20 -25 39 -45 42 -45 3 0 1 5 -6 12 -18 18 -14 32 5
17 15 -13 15 -12 2 8 -8 14 -16 18 -20 11 -4 -6 -13 -1 -24 16 -10 14 -22 26
-27 26 -5 0 7 -20 28 -45z"/>
<path d="M20181 13937 c-1 -11 -6 -15 -13 -11 -7 5 -8 3 -3 -5 10 -16 29 2 22
21 -4 8 -6 7 -6 -5z"/>
<path d="M20143 13894 c1 -11 -4 -18 -11 -16 -8 1 -11 -2 -7 -9 5 -8 12 -6 23
5 12 12 13 19 5 27 -8 8 -11 6 -10 -7z"/>
<path d="M11387 13823 c-8 -8 22 -43 37 -43 6 0 0 7 -12 16 -12 8 -20 20 -17
25 7 10 1 12 -8 2z"/>
<path d="M11446 13755 c10 -8 24 -14 29 -14 6 0 1 6 -9 14 -11 8 -24 15 -30
15 -5 0 -1 -7 10 -15z"/>
<path d="M19965 13750 c3 -6 1 -10 -6 -10 -7 0 -10 -3 -6 -6 3 -3 13 -2 22 4
16 8 16 9 1 15 -10 4 -15 3 -11 -3z"/>
<path d="M11505 13730 c-3 -6 1 -7 9 -4 18 7 21 14 7 14 -6 0 -13 -4 -16 -10z"/>
<path d="M19925 13720 c3 -5 8 -10 11 -10 2 0 4 5 4 10 0 6 -5 10 -11 10 -5 0
-7 -4 -4 -10z"/>
<path d="M19866 13704 c-6 -15 -4 -15 11 -3 10 7 20 15 22 16 2 2 -3 3 -11 3
-9 0 -19 -7 -22 -16z"/>
<path d="M11540 13706 c0 -2 7 -7 16 -10 8 -3 12 -2 9 4 -6 10 -25 14 -25 6z"/>
<path d="M15818 13373 c6 -2 18 -2 25 0 6 3 1 5 -13 5 -14 0 -19 -2 -12 -5z"/>
<path d="M15238 13363 c7 -3 16 -2 19 1 4 3 -2 6 -13 5 -11 0 -14 -3 -6 -6z"/>
<path d="M14678 13343 c6 -2 18 -2 25 0 6 3 1 5 -13 5 -14 0 -19 -2 -12 -5z"/>
<path d="M14728 13343 c6 -2 18 -2 25 0 6 3 1 5 -13 5 -14 0 -19 -2 -12 -5z"/>
<path d="M16623 13343 c9 -2 14 -9 11 -15 -4 -7 -2 -8 5 -4 15 10 4 26 -17 25
-15 -1 -15 -2 1 -6z"/>
<path d="M14448 13323 c6 -2 18 -2 25 0 6 3 1 5 -13 5 -14 0 -19 -2 -12 -5z"/>
<path d="M16668 13323 c7 -3 16 -2 19 1 4 3 -2 6 -13 5 -11 0 -14 -3 -6 -6z"/>
<path d="M14648 13313 c6 -2 18 -2 25 0 6 3 1 5 -13 5 -14 0 -19 -2 -12 -5z"/>
<path d="M16928 13313 c6 -2 18 -2 25 0 6 3 1 5 -13 5 -14 0 -19 -2 -12 -5z"/>
<path d="M14168 13293 c7 -3 16 -2 19 1 4 3 -2 6 -13 5 -11 0 -14 -3 -6 -6z"/>
<path d="M13878 13253 c7 -3 16 -2 19 1 4 3 -2 6 -13 5 -11 0 -14 -3 -6 -6z"/>
<path d="M13813 13243 c9 -2 25 -2 35 0 9 3 1 5 -18 5 -19 0 -27 -2 -17 -5z"/>
<path d="M13928 13233 c6 -2 18 -2 25 0 6 3 1 5 -13 5 -14 0 -19 -2 -12 -5z"/>
<path d="M13928 13213 c6 -2 18 -2 25 0 6 3 1 5 -13 5 -14 0 -19 -2 -12 -5z"/>
<path d="M17818 13173 c7 -3 16 -2 19 1 4 3 -2 6 -13 5 -11 0 -14 -3 -6 -6z"/>
<path d="M13338 13163 c7 -3 16 -2 19 1 4 3 -2 6 -13 5 -11 0 -14 -3 -6 -6z"/>
<path d="M17988 13153 c7 -3 16 -2 19 1 4 3 -2 6 -13 5 -11 0 -14 -3 -6 -6z"/>
<path d="M17870 13140 c-8 -5 -10 -10 -5 -10 6 0 17 5 25 10 8 5 11 10 5 10
-5 0 -17 -5 -25 -10z"/>
<path d="M12940 13086 c0 -2 7 -7 16 -10 8 -3 12 -2 9 4 -6 10 -25 14 -25 6z"/>
<path d="M12910 13070 c8 -5 20 -10 25 -10 6 0 3 5 -5 10 -8 5 -19 10 -25 10
-5 0 -3 -5 5 -10z"/>
<path d="M18344 13068 c12 -7 21 -7 28 0 6 6 0 10 -18 10 -23 0 -24 -2 -10
-10z"/>
<path d="M12858 13063 c7 -3 16 -2 19 1 4 3 -2 6 -13 5 -11 0 -14 -3 -6 -6z"/>
<path d="M18398 13063 c7 -3 16 -2 19 1 4 3 -2 6 -13 5 -11 0 -14 -3 -6 -6z"/>
<path d="M18420 13050 c-18 -12 -2 -12 25 0 13 6 15 9 5 9 -8 0 -22 -4 -30 -9z"/>
<path d="M18620 13000 c-18 -12 -2 -12 25 0 13 6 15 9 5 9 -8 0 -22 -4 -30 -9z"/>
<path d="M12570 12990 c-8 -5 -10 -10 -5 -10 6 0 17 5 25 10 8 5 11 10 5 10
-5 0 -17 -5 -25 -10z"/>
<path d="M18568 12993 c7 -3 16 -2 19 1 4 3 -2 6 -13 5 -11 0 -14 -3 -6 -6z"/>
<path d="M12395 12940 c-3 -6 1 -7 9 -4 18 7 21 14 7 14 -6 0 -13 -4 -16 -10z"/>
<path d="M12360 12920 c8 -5 20 -10 25 -10 6 0 3 5 -5 10 -8 5 -19 10 -25 10
-5 0 -3 -5 5 -10z"/>
<path d="M18948 12906 c-16 -12 -14 -13 15 -13 25 -1 28 1 12 7 l-20 7 20 5
c11 3 13 6 5 7 -8 0 -23 -6 -32 -13z"/>
<path d="M12250 12900 c-8 -5 -10 -10 -5 -10 6 0 17 5 25 10 8 5 11 10 5 10
-5 0 -17 -5 -25 -10z"/>
<path d="M15338 12893 c7 -3 16 -2 19 1 4 3 -2 6 -13 5 -11 0 -14 -3 -6 -6z"/>
<path d="M15593 12893 c9 -2 25 -2 35 0 9 3 1 5 -18 5 -19 0 -27 -2 -17 -5z"/>
<path d="M15688 12893 c6 -2 18 -2 25 0 6 3 1 5 -13 5 -14 0 -19 -2 -12 -5z"/>
<path d="M15768 12893 c7 -3 16 -2 19 1 4 3 -2 6 -13 5 -11 0 -14 -3 -6 -6z"/>
<path d="M12146 12865 c-11 -9 -14 -15 -7 -15 7 0 19 7 27 15 20 19 5 19 -20
0z"/>
<path d="M14938 12873 c7 -3 16 -2 19 1 4 3 -2 6 -13 5 -11 0 -14 -3 -6 -6z"/>
<path d="M16358 12873 c6 -2 18 -2 25 0 6 3 1 5 -13 5 -14 0 -19 -2 -12 -5z"/>
<path d="M19135 12860 c-3 -5 -1 -10 4 -10 6 0 11 5 11 10 0 6 -2 10 -4 10 -3
0 -8 -4 -11 -10z"/>
<path d="M14218 12853 c7 -3 16 -2 19 1 4 3 -2 6 -13 5 -11 0 -14 -3 -6 -6z"/>
<path d="M12074 12834 c-18 -14 -18 -14 6 -3 31 14 36 19 24 19 -6 0 -19 -7
-30 -16z"/>
<path d="M16748 12843 c7 -3 16 -2 19 1 4 3 -2 6 -13 5 -11 0 -14 -3 -6 -6z"/>
<path d="M12026 12793 c-6 -14 -5 -15 5 -6 7 7 10 15 7 18 -3 3 -9 -2 -12 -12z"/>
<path d="M19350 12790 c0 -6 7 -10 15 -10 8 0 15 2 15 4 0 2 -7 6 -15 10 -8 3
-15 1 -15 -4z"/>
<path d="M19405 12750 c-3 -5 -1 -10 4 -10 6 0 11 5 11 10 0 6 -2 10 -4 10 -3
0 -8 -4 -11 -10z"/>
<path d="M18008 12703 c7 -3 16 -2 19 1 4 3 -2 6 -13 5 -11 0 -14 -3 -6 -6z"/>
<path d="M13366 12681 c-4 -5 3 -7 14 -4 23 6 26 13 6 13 -8 0 -17 -4 -20 -9z"/>
<path d="M13209 12653 c-13 -17 -13 -17 6 -3 11 8 22 16 24 17 2 2 0 3 -6 3
-6 0 -17 -8 -24 -17z"/>
<path d="M18015 12660 c3 -5 8 -10 11 -10 2 0 4 5 4 10 0 6 -5 10 -11 10 -5 0
-7 -4 -4 -10z"/>
<path d="M19478 12655 c5 -11 12 -27 15 -35 5 -13 6 -13 6 1 1 8 -6 24 -15 35
-15 19 -15 19 -6 -1z"/>
<path d="M18315 12590 c3 -5 14 -10 23 -10 15 0 15 2 2 10 -20 13 -33 13 -25
0z"/>
<path d="M12918 12583 c7 -3 16 -2 19 1 4 3 -2 6 -13 5 -11 0 -14 -3 -6 -6z"/>
<path d="M19491 12564 c0 -11 3 -14 6 -6 3 7 2 16 -1 19 -3 4 -6 -2 -5 -13z"/>
<path d="M12678 12533 c7 -3 16 -2 19 1 4 3 -2 6 -13 5 -11 0 -14 -3 -6 -6z"/>
<path d="M18670 12530 c-9 -6 -10 -10 -3 -10 6 0 15 5 18 10 8 12 4 12 -15 0z"/>
<path d="M12647 12519 c7 -7 15 -10 18 -7 3 3 -2 9 -12 12 -14 6 -15 5 -6 -5z"/>
<path d="M18568 12523 c7 -3 16 -2 19 1 4 3 -2 6 -13 5 -11 0 -14 -3 -6 -6z"/>
<path d="M11990 12511 c0 -6 4 -13 10 -16 6 -3 7 1 4 9 -7 18 -14 21 -14 7z"/>
<path d="M18613 12513 c9 -2 23 -2 30 0 6 3 -1 5 -18 5 -16 0 -22 -2 -12 -5z"/>
<path d="M12027 12459 c7 -7 15 -10 18 -7 3 3 -2 9 -12 12 -14 6 -15 5 -6 -5z"/>
<path d="M18808 12463 c7 -3 16 -2 19 1 4 3 -2 6 -13 5 -11 0 -14 -3 -6 -6z"/>
<path d="M18928 12463 c7 -3 16 -2 19 1 4 3 -2 6 -13 5 -11 0 -14 -3 -6 -6z"/>
<path d="M19437 12456 c-5 -12 -3 -15 5 -10 8 5 9 1 4 -12 -5 -14 -4 -16 4 -7
8 7 9 17 3 28 -9 16 -10 16 -16 1z"/>
<path d="M18920 12440 c-8 -5 -10 -10 -5 -10 6 0 17 5 25 10 8 5 11 10 5 10
-5 0 -17 -5 -25 -10z"/>
<path d="M12358 12433 c7 -3 16 -2 19 1 4 3 -2 6 -13 5 -11 0 -14 -3 -6 -6z"/>
<path d="M12318 12423 c7 -3 16 -2 19 1 4 3 -2 6 -13 5 -11 0 -14 -3 -6 -6z"/>
<path d="M18957 12419 c7 -7 15 -10 18 -7 3 3 -2 9 -12 12 -14 6 -15 5 -6 -5z"/>
<path d="M19158 12383 c6 -2 10 -9 7 -14 -4 -5 1 -6 10 -2 13 5 14 7 3 14 -7
5 -17 8 -23 8 -5 0 -4 -3 3 -6z"/>
<path d="M19360 12370 c-9 -6 -10 -10 -3 -10 6 0 15 5 18 10 8 12 4 12 -15 0z"/>
<path d="M19325 12350 c3 -5 8 -10 11 -10 2 0 4 5 4 10 0 6 -5 10 -11 10 -5 0
-7 -4 -4 -10z"/>
<path d="M5174 9390 c-125 -18 -224 -70 -310 -162 -84 -89 -124 -187 -124
-304 0 -184 114 -345 439 -617 243 -204 300 -271 301 -355 0 -72 -59 -147
-136 -172 -49 -17 -150 -8 -199 18 -48 24 -132 111 -166 170 -13 23 -29 41
-35 40 -6 -2 -74 -41 -152 -88 l-141 -84 31 -56 c104 -185 248 -297 430 -334
145 -30 303 -13 424 44 84 41 191 141 231 217 44 82 67 198 59 289 -16 197
-101 320 -376 549 -166 137 -305 267 -334 310 -65 98 -1 196 130 197 76 1 147
-37 223 -118 39 -41 66 -62 74 -58 26 16 247 216 247 224 0 4 -44 49 -97 100
-118 110 -215 163 -338 185 -88 16 -105 16 -181 5z"/>
<path d="M6243 8663 c4 -766 6 -787 71 -918 115 -232 405 -356 706 -301 232
42 422 227 467 454 12 63 16 207 20 765 l5 687 -181 0 -180 0 -3 -682 c-3
-501 -7 -693 -16 -719 -37 -109 -131 -172 -261 -173 -137 -1 -235 69 -260 185
-7 33 -11 281 -11 719 l0 670 -181 0 -180 0 4 -687z"/>
<path d="M8000 8415 l0 -935 180 0 180 0 0 395 0 395 73 0 c119 1 268 19 334
41 82 27 167 83 226 149 56 62 79 103 101 180 54 193 10 408 -112 541 -123
135 -273 169 -738 169 l-244 0 0 -935z m672 556 c66 -32 91 -70 96 -148 5 -75
-8 -112 -54 -153 -47 -40 -90 -50 -231 -50 l-123 0 0 191 0 191 133 -4 c112
-3 139 -7 179 -27z"/>
<path d="M9550 8415 l0 -935 515 0 515 0 0 170 c0 168 0 170 -22 175 -13 3
-164 4 -336 3 l-312 -3 0 248 0 247 335 0 335 0 0 170 0 170 -335 0 -335 0 0
170 0 170 335 0 335 0 0 175 0 175 -515 0 -515 0 0 -935z"/>
<path d="M11020 8415 l0 -935 175 0 175 0 0 395 c0 377 1 395 18 395 14 0 69
-94 228 -395 l209 -395 193 0 c105 0 192 2 192 4 0 3 -82 159 -265 501 -122
229 -165 313 -165 319 0 4 21 17 48 28 161 71 265 202 291 368 32 195 -20 373
-143 495 -129 128 -251 154 -713 155 l-243 0 0 -935z m621 575 c94 -26 141
-87 140 -181 0 -84 -24 -127 -87 -159 -44 -22 -64 -25 -186 -28 l-138 -4 0
191 0 191 118 0 c64 0 133 -5 153 -10z"/>
<path d="M12765 9328 c-2 -13 -41 -234 -85 -493 -45 -258 -90 -519 -100 -580
-73 -419 -130 -754 -130 -764 0 -8 48 -11 172 -9 l172 3 67 390 c37 215 82
477 100 583 18 106 35 189 39 185 4 -4 94 -268 200 -585 l192 -578 158 0 158
0 192 578 c106 317 195 580 199 584 4 4 42 -203 85 -460 43 -257 87 -520 99
-584 l20 -118 169 0 c148 0 168 2 168 16 0 20 -299 1812 -306 1837 -5 16 -20
17 -176 15 l-171 -3 -215 -642 c-118 -354 -218 -643 -222 -643 -4 0 -104 289
-222 643 l-215 642 -171 3 c-171 2 -172 2 -177 -20z"/>
<path d="M15236 8428 c-197 -508 -360 -929 -363 -935 -4 -10 36 -13 180 -13
l185 0 60 153 c32 83 65 169 73 190 l13 37 387 0 386 0 67 -177 c37 -98 70
-184 75 -191 6 -9 50 -12 188 -10 l181 3 -358 930 -357 930 -180 3 -180 2
-357 -922z m659 112 c52 -135 102 -260 110 -278 8 -18 15 -37 15 -42 0 -6 -96
-10 -251 -10 -197 0 -250 3 -246 13 6 15 230 584 241 612 7 18 9 16 22 -15 7
-19 56 -145 109 -280z"/>
<path d="M17060 8415 l0 -935 175 0 175 0 0 396 c0 393 0 395 21 392 15 -2 68
-93 227 -393 l207 -390 193 -3 c105 -1 192 0 192 4 0 3 -20 43 -44 88 -171
319 -386 725 -386 730 0 3 28 18 63 35 88 42 139 83 191 151 67 90 91 170 91
310 0 174 -40 284 -143 392 -122 128 -256 158 -714 158 l-248 0 0 -935z m637
570 c115 -34 167 -177 102 -284 -35 -58 -86 -75 -246 -79 l-143 -4 0 191 0
191 118 0 c76 0 136 -5 169 -15z"/>
<path d="M18630 8415 l0 -935 180 0 180 0 0 411 c0 328 3 409 13 401 6 -6 136
-191 287 -411 l275 -400 212 0 213 -1 -75 108 c-41 59 -99 143 -129 187 -30
44 -152 220 -270 390 -118 171 -220 320 -226 331 -11 20 15 56 276 390 158
203 305 390 327 417 l39 47 -216 0 -215 0 -246 -315 c-135 -173 -250 -317
-255 -320 -7 -4 -10 109 -10 314 l0 321 -180 0 -180 0 0 -935z"/>
<path d="M20340 8415 l0 -935 510 0 510 0 0 169 c0 145 -2 170 -16 175 -9 3
-159 6 -335 6 l-319 0 0 245 0 245 335 0 335 0 0 170 0 170 -335 0 -335 0 0
170 0 170 335 0 335 0 0 175 0 175 -510 0 -510 0 0 -935z"/>
<path d="M21700 9333 c0 -10 -1 -88 -2 -173 l-1 -155 167 -3 166 -2 0 -760 0
-760 180 0 180 0 0 760 0 760 170 0 170 0 0 175 0 175 -515 0 c-484 0 -515 -1
-515 -17z"/>
<path d="M9785 6443 c-130 -68 -154 -224 -52 -332 18 -18 69 -62 114 -98 101
-79 160 -144 173 -192 28 -105 -71 -198 -187 -176 -37 7 -100 60 -133 113 -15
24 -15 24 -48 5 -17 -10 -32 -23 -32 -28 0 -33 83 -121 144 -152 42 -21 60
-24 121 -21 59 3 81 9 121 33 131 81 147 249 36 369 -15 16 -73 64 -130 108
-125 97 -153 132 -154 188 -1 122 143 155 238 54 l41 -43 33 28 34 28 -45 48
c-24 26 -62 56 -84 66 -50 23 -148 24 -190 2z"/>
<path d="M11135 6442 c-78 -27 -138 -66 -193 -127 -123 -134 -155 -333 -79
-498 37 -82 126 -170 213 -214 68 -33 84 -37 177 -41 86 -3 112 -1 166 18 78
26 131 61 193 127 160 172 159 446 -4 613 -64 65 -109 93 -187 120 -78 26
-214 27 -286 2z m292 -96 c74 -34 154 -113 185 -183 26 -59 35 -183 19 -250
-63 -255 -397 -360 -591 -186 -96 86 -136 182 -128 308 17 258 280 416 515
311z"/>
<path d="M12188 6441 c-81 -26 -135 -61 -195 -123 -82 -88 -123 -189 -123
-309 0 -164 103 -331 245 -398 124 -58 308 -67 427 -22 71 27 154 101 191 168
30 56 57 151 57 200 l0 33 -185 0 -185 0 0 -40 0 -40 135 0 c134 0 135 0 135
-23 0 -38 -48 -123 -92 -162 -71 -65 -117 -80 -243 -80 -104 0 -114 2 -175 32
-261 128 -297 453 -70 624 59 44 160 79 229 79 95 0 224 -48 296 -111 l35 -31
37 28 36 28 -44 38 c-58 50 -141 94 -214 113 -81 21 -225 19 -297 -4z"/>
<path d="M10300 6010 l0 -430 210 0 210 0 0 40 0 40 -165 0 -165 0 0 390 0
390 -45 0 -45 0 0 -430z"/>
<path d="M13262 6383 c-17 -32 -61 -125 -100 -208 -38 -82 -93 -199 -122 -260
-29 -60 -68 -144 -87 -185 -19 -41 -44 -92 -54 -112 l-19 -38 48 0 49 0 64
140 64 139 191 1 191 0 67 -140 66 -140 45 0 45 0 -13 28 c-83 188 -387 827
-395 830 -6 2 -24 -23 -40 -55z m113 -280 c37 -79 65 -146 63 -150 -1 -5 -66
-6 -144 -3 l-140 5 70 152 c39 83 74 148 77 145 4 -4 37 -71 74 -149z"/>
<path d="M13850 6010 l0 -430 45 0 45 0 0 325 0 326 143 -164 c78 -90 205
-236 282 -325 77 -88 146 -161 153 -161 9 -1 12 91 12 429 l0 430 -45 0 -45 0
-2 -327 -3 -326 -283 326 c-156 180 -288 327 -293 327 -5 0 -9 -170 -9 -430z"/>
<path d="M15070 6010 l0 -430 45 0 45 0 0 210 0 210 220 0 220 0 0 -210 0
-210 40 0 40 0 0 430 0 430 -40 0 -40 0 0 -180 0 -180 -220 0 -220 0 0 180 0
180 -45 0 -45 0 0 -430z"/>
<path d="M15900 6010 l0 -430 245 0 245 0 0 40 0 40 -205 0 -205 0 0 170 0
170 203 2 202 3 0 40 0 40 -202 3 -203 2 0 135 0 135 205 0 205 0 0 40 0 40
-245 0 -245 0 0 -430z"/>
<path d="M16550 6010 l0 -430 40 0 40 0 0 200 0 200 28 0 c23 -1 47 -27 180
-200 l153 -200 49 0 c28 0 50 2 50 5 0 4 -50 69 -257 335 l-43 55 63 8 c127
16 204 77 227 180 27 125 -46 240 -171 266 -27 6 -120 11 -204 11 l-155 0 0
-430z m377 326 c96 -58 93 -192 -7 -250 -26 -16 -58 -20 -161 -24 l-129 -5 0
153 0 152 133 -4 c106 -3 138 -7 164 -22z"/>
<path d="M17270 6010 l0 -430 245 0 245 0 0 40 0 40 -200 0 -200 0 0 170 0
170 200 0 200 0 0 45 0 45 -200 0 -200 0 0 135 0 135 205 0 205 0 0 40 0 40
-250 0 -250 0 0 -430z"/>
</g>
</svg>
